<?xml version="1.0" encoding="UTF-8"?>
<svg viewBox="0 0 996 1056" xmlns="http://www.w3.org/2000/svg">
 <path d="m64,725.75 5-1.75 1.5,1.75q1.5,1.75 3.5,3t3,2.5 3.5,2.25l2.5,1 5.5,7 5.5,7-.25,1.25q-.25,1.25 2.25,7.75t3,7 2.5,7 3.25,8 2.75,5.75 2.25,5.5l.75,1.25 1,25q1,25-.25,28.75l-1.25,3.75 1,.25q1,.25 3,8.5l2,8.25-.75.75q-.75.75-1.25,22.25t-1.25,54.5-1.75,33.25l-1,.25 .25.25q.25.25 1,4.5l.75,4.25-1.25,3.25q-1.25,3.25-.5,9l.75,5.75 2.5.75 2.5.75h-47.5-47.5l-.25-7q-.25-7-.25-27.5t-1-27-4.75-7.25l-3.75-.75 4-.25q4-.25 4.25-8.25t-.5-10.25l-.75-2.25 1.5-17.25q1.5-17.25 0-17.5l-1.5-.25 1.25-2.25q1.25-2.25 2.25-5.25t.25-19 .75-17.75l1.5-1.75-.75-2.75q-.75-2.75-1.5-5l-.75-2.25 3-1q3-1 3.75-3.75l.75-2.75 1-3q1-3-.25-5.75l-1.25-2.75 2-.5q2-.5 4-11.75l2-11.25 1-.25q1-.25 2.75-4t6.25-20.75 8.75-23.25 9.25-8z" fill="#2a2e69" fill-rule="evenodd" stroke="#000" stroke-width="2"/>
 <path d="m147,690.5v.5l.75,1q.75,1 1.25,5.5l.5,4.5 2.5,2q2.5,2 2.75,6l.25,4 1.75,1.5q1.75,1.5 3.5,4.25t3.75,3l2,.25 .25,5 .25,5 4.25,5.75q4.25,5.75 7.5,8.5t6.5,6 4.25,3.5l1,.25 2,3.25q2,3.25 3.5,5.75t6.75,7.75 5.75,4.75l.5-.5 3.25,4.25q3.25,4.25 6.5,7t4.5,5.25 3.5,3 4.25,3.5 5.75,6.75l3.75,3.75 .75,1.75q.75,1.75 1,3.25t2.5,3 3.5,4l1.25,2.5 2,1.25q2,1.25 4,3.5l2,2.25h.5 .5l2.75,3.5q2.75,3.5 4,4t4.25,2l3,1.5v-4.5-4.5h.5 .5v-.5-.5h.5q.5,0-1,21.75t-.5,22-1.25,10.25-6.25,23-4.5,34-1,23l-.5,2 1.5,4q1.5,4 3.75,18l2.25,14h-75-75l-2.5-.75-2.5-.75-.75-5.75q-.75-5.75.5-9l1.25-3.25-.75-4.25q-.75-4.25-1-4.5l-.25-.25 1-.25q1-.25 1.75-33.25t1.25-54.5 1.25-22.25l.75-.75-2-8.25q-2-8.25-3-8.5l-1-.25 1.25-3.75q1.25-3.75.25-28.75l-1-25-.75-1.25q-.75-1.25-2.25-5.5t-2.75-5.75-3.25-8-2.5-7-3-7-2.25-7.75l.25-1.25-5.5-7-5.5-7-2.5-1q-2.5-1-3.5-2.25t-3-2.5-3.5-3l-1.5-1.75 3-1.25q3-1.25 6-3.75t4.5-1.75 3.25-.75 7-2.25 17.75-5.75l12.5-5 2-4q2-4 1.5-5.5l-.5-1.5 10.5-1.25 10.5-1.25v.5zm108,185.5q2.5-2 4-1t.25,6.25-4.5,4.5-2.75-4.25l.5-3.5 2.5-2z" fill="#2c3069" fill-rule="evenodd" stroke="#000" stroke-width="2"/>
 <path d="m161,678.75 6-8.75h.5q.5,0 2.75,6t7.5,13.25 9,13 15,25 13.5,23.5 9.25,17.25 7.75,14.5l.75,1.5v.5 .5l1.75,1.5q1.75,1.5 3.5,4.75t3.75,6 3.75,8.25 4.5,7 4.75,5.75 2.75,5l.75.75-.25,4.5-.25,4.5h-.5-.5l-2-2.25q-2-2.25-4-3.5l-2-1.25-1.25-2.5q-1.25-2.5-3.5-4t-2.5-3-1-3.25l-.75-1.75-3.75-3.75q-3.75-3.75-5.75-6.75t-4.25-3.5-3.5-3-4.5-5.25-6.5-7l-3.25-4.25-.5.5q-.5.5-5.75-4.75t-6.75-7.75-3.5-5.75l-2-3.25-1-.25q-1-.25-4.25-3.5t-6.5-6-7.5-8.5l-4.25-5.75-.25-5-.25-5-2-.25q-2-.25-3.75-3t-3.5-4.25l-1.75-1.5-.25-4q-.25-4-2.75-6l-2.5-2-.5-4.5q-.5-4.5-1.25-5.5l-.75-1 .5-.25q.5-.25 4-1.75t9.5-10.25z" fill="#2d316b" fill-rule="evenodd" stroke="#000" stroke-width="2"/>
 <path d="m168,667.5 1-2.5 13.5,8.25q13.5,8.25 24.75,15.5t12.5,7.75l1.25.5v.5 .5l-4.25,2.5q-4.25,2.5-4.75,3l-.5.5 1.5,2.5q1.5,2.5 6,6.5l4.5,4 .25.5 .25.5 2.75,22.5q2.75,22.5 3.75,26.5t2.25,10.5l1.25,6.5h-.5-.5l-.75-1.5q-.75-1.5-7.75-14.5t-9.25-17.25-13.5-23.5-15-25-9-13-7.5-13.25-2.75-6h-.5l1-2.5z" fill="#fff" fill-rule="evenodd" stroke="#000" stroke-width="2"/>
 <path d="m246.75,683 2.25-2 1,5 1,5-.25.5q-.25.5 4.25,25t10,50.5 6.75,46.5l1.25,20.5v.5 .5h-.5-.5l-1.75-8q-1.75-8-8.75-33.5t-13-40.5-8.75-26.5l-2.75-11.5 .75-3q.75-3 3-5.75l2.25-2.75-5-2.5-5-2.5 .5-.75 .5-.75 1.75-1 1.75-1 3.5-5q3.5-5 5.75-7z" fill="#fff" fill-rule="evenodd" stroke="#000" stroke-width="2"/>
 <path d="m232.25,696 1.75,1-.5.75-.5.75 5,2.5 5,2.5-2.25,2.75q-2.25,2.75-3,5.75l-.75,3-1,.75-1,.75-5.5.75-5.5.75-.25-.5-.25-.5-4.5-4q-4.5-4-6-6.5l-1.5-2.5 .5-.5q.5-.5 4.75-3l4.25-2.5 .25.5 .25.5 2.75-1.25q2.75-1.25 4.5-2l1.75-.75 1.75,1z" fill="#b03063" fill-rule="evenodd" stroke="#000" stroke-width="2"/>
 <path d="m236,715.75 1-.75 2.75,11.5q2.75,11.5 8.75,26.5t13,40.5 8.75,33.5l1.75,8v4.5 4.5l-3-1.5q-3-1.5-4.25-2t-4-4l-2.75-3.5 .25-4.5 .25-4.5-.75-.75q-.75-.75-2.75-5t-4.75-5.75-4.5-7-3.75-8.25-3.75-6-3.5-4.75l-1.75-1.5v-.5-.5l-.75-6.5q-.75-6.5-1.75-10.5t-3.75-26.5l-2.75-22.5 5.5-.75 5.5-.75 1-.75z" fill="#b33265" fill-rule="evenodd" stroke="#000" stroke-width="2"/>
 <path d="m255,876q2.5-2 4-1t.25,6.25-4.5,4.5-2.75-4.25l.5-3.5 2.5-2z" fill-rule="evenodd" stroke="#000" stroke-width="2"/>
 <path d="m265.25,952.75q1.75-4.25 5.25-2t2,5.5-1.75,3.5l-.25.25-1.5.5q-1.5.5-3.5-1.5t-.25-6.25z" fill-rule="evenodd" stroke="#000" stroke-width="2"/>
 <path d="m250.75,691.5 .25-.5 2.25,2.5q2.25,2.5 6,6.75t9.75,8.25 25,12 31.75,13.75 13.25,6.75l.5,1 .75,2 .75,2h-.5-.5l-.75,2.5q-.75,2.5 2,20l2.75,17.5h-1q-1,0-1.5,5l-.5,5-.5-1-.5-1-1.5.5-1.5.5-.25-.5-.25-.5-12.75-1.5-12.75-1.5-.5,3.5-.5,3.5-.75,1.5-.75,1.5-.25,4-.25,4 1.25.5q1.25.5 1.5-1.5l.25-2h.5q.5,0 .5,2v2l5,.5q5,.5 7,0l2-.5v.5 .5l6.5.5 6.5.5 .5-1 .5-1v2 2h1.5q1.5,0 3.25,10t1.25,11-1.5,19-1,19.5 .5,4l.5,2.5-1.5.5q-1.5.5-2.5,2.5t-2.5,22-3,33.5-2.25,14.5-.5,8 2.25,23 2.75,18.5l.75,2.5 3,.5 3,.5h-39-39l-2.25-14q-2.25-14-3.75-18l-1.5-4 .5-2q.5-2 1-23t4.5-34 6.25-23 1.25-10.25 .5-22 1-21.75h-.5l-1.25-20.5q-1.25-20.5-6.75-46.5t-10-50.5-4.25-25zm14.5,261.25q1.75-4.25 5.25-2t2,5.5-1.75,3.5l-.25.25-1.5.5q-1.5.5-3.5-1.5t-.25-6.25z" fill="#2e2f66" fill-rule="evenodd" stroke="#000" stroke-width="2"/>
 <path d="m336.75,794.5 .25.5-5,7.25q-5,7.25-5.5,7.5l-.5.25-2,.5q-2,.5-7,0l-5-.5v-2q0-2-.5-2h-.5v-4q0-4-.5-4h-.5l.5-3.5 .5-3.5 12.75,1.5 12.75,1.5 .25.5z" fill="#191a38" fill-rule="evenodd" stroke="#000" stroke-width="2"/>
 <path d="m309.25,799.5 .75-1.5h.5q.5,0 .5,4v4l-.25,2q-.25,2-1.5,1.5l-1.25-.5 .25-4 .25-4 .75-1.5z" fill="#e8d73f" fill-rule="evenodd" stroke="#000" stroke-width="2"/>
 <path d="m340.5,795 .5,1-.5,7-.5,7-.5,1-.5,1-6.5-.5-6.5-.5v-.5-.5l.5-.25q.5-.25 5.5-7.5l5-7.25 1.5-.5 1.5-.5 .5,1z" fill="#fff" fill-rule="evenodd" stroke="#000" stroke-width="2"/>
 <path d="m340.5,746h.5l1,1 1,1 4.75,22q4.75,22 5,24l.25,2 4.25,39q4.25,39 10.75,91.5t8.75,66l2.25,13.5h-17.5-17.5l-3-.5-3-.5-.75-2.5q-.75-2.5-2.75-18.5t-2.25-23 .5-8 2.25-14.5 3-33.5 2.5-22 2.5-2.5l1.5-.5-.5-2.5q-.5-2.5-.5-4t1-19.5 1.5-19-1.25-11-3.25-10h-1.5v-2-2l.5-7 .5-7 .5-5q.5-5 1.5-5h1l-2.75-17.5q-2.75-17.5-2-20l.75-2.5h.5z" fill="#2a2a5e" fill-rule="evenodd" stroke="#000" stroke-width="2"/>
 <path d="m393.5,1004-.5,2h-7-7l-2.25-13.5q-2.25-13.5-8.75-66t-10.75-91.5l-4.25-39 1-1 1-1 2.75,2q2.75,2 5.75,8.5l3,6.5 3.75,2.75q3.75,2.75 3.75,3.75t1.25,2.75 1.75,2.25l.5.5 2.5,12.5q2.5,12.5 7.5,31.5t6,35-.5,54-1.25,41.75 1.25,4 .5,2.25z" fill="#735c45" fill-rule="evenodd" stroke="#000" stroke-width="2"/>
 <path d="m395.5,716.75 5.5-2.75 1,.75q1,.75 2.25,2t2.5,11.75 2,12 1,2.25 2.25,1.75l2,1-.25.25q-.25.25-.25,5.25v7 2l29.5,28.5q29.5,28.5 30.75,30.5t3.5,4 7.75,7 14.25,11.75 9.25,7l.5.25v.5 .5h1.5 1.5l.5,2 .5,2v1 1l1.75,7.5q1.75,7.5 10.75,37.5t16.25,38.25 9.5,12l2.25,3.75-.25,1.5-.25,1.5h-.5-.5v7q0,7 2,7h2v.5 .5h-2q-2,0-1.75,5.5t-.25,8.5-.75,8.75-1.25,7.75l-1,2-.5.25-.5.25h-77.5-77.5l.5-2q.5-2-.5-2.25t-1.25-4 1.25-41.75 .5-54-6-35-7.5-31.5l-2.5-12.5-.5-.5q-.5-.5-1.75-2.25t-1.25-2.75-3.75-3.75l-3.75-2.75-3-6.5q-3-6.5-5.75-8.5l-2.75-2-1,1-1,1-.25-2q-.25-2-5-24l-4.75-22 4.25-3q4.25-3 23.5-14.25t24.75-14zm147.25,282.5q2.25-.75 3,0l.75.75 .25,2.25q.25,2.25-3.5,2t-3.25-2.25l.5-2 2.25-.75z" fill="#705a44" fill-rule="evenodd" stroke="#000" stroke-width="2"/>
 <path d="m543.5,998.5q1.5,0 1.75.25l.5.5 .5.5 .25.25 .5,1q.5,1 .75,2.5l.25,1.5-4-.25q-4-.25-4.25-.5t-.25-1.75 .25-1.75l.5-.5 .25-.25 .25-.25 .5-.5 .5-.5q.25-.25 1.75-.25z" fill-rule="evenodd" stroke="#000" stroke-width="2"/>
 <path d="m423.5,687.5 .5-1.5h.5q.5,0 2.25,10.5t11,25.75 13,21 9.5,14 10,14.5 8,12.75l3.75,6.5h.5 .5l1.75,5.5q1.75,5.5 13.5,26.75t12.75,22.5l1,1.25-.75.5-.75.5-.75.5-.75.5-.5-.25q-.5-.25-9.25-7t-14.25-11.75-7.75-7-3.5-4-30.75-30.5l-29.5-28.5v-2-7q0-5 .25-5.25l.25-.25-2-1q-2-1-2.25-1.75t-1-2.25-2-12-2.5-11.75-2.25-2l-1-.75 3-2.25q3-2.25 5.25-6t5-4.25 4-3.5 1-4.25 1.75-3 2.5-3.25z" fill="#705a44" fill-rule="evenodd" stroke="#000" stroke-width="2"/>
 <path d="m424.5,684 .5-2 5,2.75q5,2.75 6,3l1,.25v.5 .5l11,3.25q11,3.25 15.25,5l4.25,1.75 .25.5 .25.5-2,4-2,4 3.25.5q3.25.5 5.75,10.5t2,12 1,18 3.75,29l2.25,13-3.75-6.5q-3.75-6.5-8-12.75t-10-14.5-9.5-14-13-21-11-25.75-2.25-10.5h-.5l.5-2z" fill="#fff" fill-rule="evenodd" stroke="#000" stroke-width="2"/>
 <path d="m479 696.75 3 0.25 3.75 2 3.75 2-1.5 4.5q-1.5 4.5-2 10t2.5 13 9.5 18.5 7.75 15l1.25 4 0.75 4q0.75 4 1.75 7t2.25 36.5l1.25 33.5h-1l-1-1.25q-1-1.25-12.75-22.5t-13.5-26.75l-1.75-5.5h-1l-2.25-13q-2.25-13-3.75-29t-1-18-2-12-5.75-10.5l-3.25-0.5 2-4 2-4 4-1.75q4-1.75 7-1.5z" fill="#403428" fill-rule="evenodd" stroke="#000" stroke-width="2"/>
 <path d="m500.25,677.5 .75.5 1.25,12.5q1.25,12.5 3.5,44l2.25,31.5h-.5-.5l-1.25-4q-1.25-4-7.75-15t-9.5-18.5-2.5-13 2-10l1.5-4.5-3.75-2-3.75-2 4.5-4.75q4.5-4.75 8.75-10l4.25-5.25 .75.5z" fill="#fff" fill-rule="evenodd" stroke="#000" stroke-width="2"/>
 <path d="m516.5,857.75-3.5-1.75v-1-1l1.5-1.5q1.5-1.5 3-2.25t2.25,0l.75.75 1.5,2q1.5,2-.25,4.25t-5.25.5z" fill-rule="evenodd" stroke="#000" stroke-width="2"/>
 <path d="m538,921.5q2,0 3.25.75l1.25.75 .75,3.75q.75,3.75-3.75,2.25t-3.5-1.75 .5-3 1.5-2.75z" fill-rule="evenodd" stroke="#000" stroke-width="2"/>
 <path d="m579.25 1004 0.75 2h-32v-1l1.5-1.75q1.5-1.75 1.75-7.5t0.75-8.75 0.25-8.5 1.75-5.5h2v-1h2q2 0 1.5-2l-0.5-2 0.25-0.5 0.25-0.5 4.5 6.5q4.5 6.5 9.5 17.5t5.75 13z" fill="#2e261d" fill-rule="evenodd" stroke="#000" stroke-width="2"/>
 <path d="m552.5,958h.5l1,2.25 1,2.25 1,1.5 1,1.5 1,1.25 1,1.25 .5,2q.5,2-1.5,2h-2-2q-2,0-2-7v-7h.5z" fill="#fff" fill-rule="evenodd" stroke="#000" stroke-width="2"/>
 <path d="m577,679 9,1h.5 .5l3.25,10.5q3.25,10.5 7,30.5l3.75,20 3.25.5q3.25.5 5.5,3.75t3.25,3.5l1,.25 .75,9q.75,9 2,11.5t3.75,3.5l2.5,1 2.5,18.75q2.5,18.75 3.5,19l1,.25 .75,19q.75,19 3,69l2.25,50 1,.5 1,.5-.25,1q-.25,1 .5,9.5l.75,8.5h2 2l.25,1.5 .25,1.5 1.75,16q1.75,16 3.25,16h1.5v.5 .5h-35-35l-.75-2q-.75-2-5.75-13t-9.5-17.5l-4.5-6.5-.25.5-.25.5-1-1.25-1-1.25-1-1.5-1-1.5-1-2.25-1-2.25 .25-1.5 .25-1.5-2.25-3.75q-2.25-3.75-9.5-12t-16.25-38.25-10.75-37.5l-1.75-7.5 3.5,1.75q3.5,1.75 5.25-.5t1.25-3.25l-.5-1-1.75-1.75q-1.75-1.75-3.25-1t-3,2.25l-1.5,1.5-.5-2-.5-2h-1.5-1.5v-.5-.5l1.5-1 1.5-1h.5 .5l8.75-27q8.75-27 12.75-48.5t6-25l2-3.5-.25-4.5q-.25-4.5 1.25-4.75t2.25-3 2-5l1.25-2.25-2-1q-2-1-5-1.75t-3.5-3.75-3.5-4.75l-3-1.75 .75-4.75q.75-4.75 1-5.5l.25-.75-2-.25q-2-.25-2-1.25t-2.5-2.25-6.25-4-4-4.5l-.25-1.75-3.5-1.25q-3.5-1.25-3.5-2.25v-1l2-2.5q2-2.5 3,0t2.75,1.5 2.5-1 1.75,1 4.25-.5l3.25-1.5 .25,1q.25,1 4.25.75t5.5,0 2.25-1.75l.75-2 1.5,1.5q1.5,1.5 3,1t3.75-.25 4.5-1.5l2.25-1.75 1.75.25q1.75.25 2.25,1t3.5,1.25 12,1.5zm-39,242.5q2,0 3.25.75l1.25.75 .75,3.75q.75,3.75-3.75,2.25t-3.5-1.75 .5-3 1.5-2.75zm45-157.75 1,1.25 4.5-.5 4.5-.5 .25,1q.25,1 1,3.25t2.25,6l1.5,3.75-3,.25q-3,.25-10.5,3.25l-7.5,3-1,1q-1,1-1.75,2.25t-7,4-10.25,3.75l-4,1-.25-.25q-.25-.25-1.75-4.75t.75-5.5 2.25-2.5 2-2.5l2-1 2.5-4.25q2.5-4.25 5.75-9.5t5-7 3-2.5l1.25-.75 3.25,3.25q3.25,3.25 4.25,4.5z" fill="#664f38" fill-rule="evenodd" stroke="#000" stroke-width="2"/>
 <path d="m556,781 2-1 7-3.25q7-3.25 13-7.5l6-4.25 4.5-.5 4.5-.5 .25,1q.25,1 1,3.25t2.25,6l1.5,3.75-3,.25q-3,.25-10.5,3.25l-7.5,3-1,1q-1,1-1.75,2.25t-7,4-10.25,3.75l-4,1-.25-.25q-.25-.25-1.75-4.75t.75-5.5 2.25-2.5 2-2.5z" fill="#453627" fill-rule="evenodd" stroke="#000" stroke-width="2"/>
 <path d="m583,763.75 1,1.25-6,4.25q-6,4.25-13,7.5l-7,3.25 2.5-4.25q2.5-4.25 5.75-9.5t5-7 3-2.5l1.25-.75 3.25,3.25q3.25,3.25 4.25,4.5z" fill="#f5c89a" fill-rule="evenodd" stroke="#000" stroke-width="2"/>
 <path d="m501.5,677 .5-1h1q1,0 2.5,1.25t2,2.5 1.5,1.25h1v1q0,1 3.5,2.25l3.5,1.25 .25,1.75q.25,1.75 4,4.5t6.25,4 2.5,2.25 2,1.25l2,.25-.25.75q-.25.75-1,5.5l-.75,4.75 3,1.75q3,1.75 3.5,4.75t3.5,3.75 5,1.75l2,1-1.25,2.25q-1.25,2.25-2,5t-2.25,3-1.25,4.75l.25,4.5-2,3.5q-2,3.5-6,25t-12.75,48.5l-8.75,27-1.25-33.5q-1.25-33.5-2.25-36.5t-1.75-7l-.75-4h.5 .5l-2.25-31.5q-2.25-31.5-3.5-44l-1.25-12.5 .5-1z" fill="#6b543c" fill-rule="evenodd" stroke="#000" stroke-width="2"/>
 <path d="m643.5,712.75 7.5,1.25 1,.5 1,.5-.25,1q-.25,1-1,32.5l-.75,31.5h-.5q-.5,0-1.5,2.75t-2,3.25l-1,.5 .5,1.75 .5,1.75-5.5-1.25q-5.5-1.25-8.5-.5l-3,.75 .5,11.5 .5,11.5h-.5-.5l-1-.25q-1-.25-3.5-19l-2.5-18.75-2.5-1q-2.5-1-3.75-3.5t-2-11.5l-.75-9-1-.25q-1-.25-3.25-3.5t-5.5-3.75l-3.25-.5-4.25-23.5q-4.25-23.5-6.75-29.5t-3.25-7l-.75-1v-.5-.5l5,2.75q5,2.75 9.75,7.5t5.5,7l.75,2.25 7,4q7,4 14.5,6.5t15,3.75z" fill="#6b523a" fill-rule="evenodd" stroke="#000" stroke-width="2"/>
 <path d="m651,798 1,7-.25.5q-.25.5-.5,15l-.25,14.5h-.5-.5l-.25-2q-.25-2-1.25-2t-3.5-2.5l-2.5-2.5v-1-3-8q0-6 1.75-7.25l1.75-1.25-1.25-4.25q-1.25-4.25.5-6.75l1.75-2.5 1.5-.5q1.5-.5 2.5,6.5z" fill="#e8c29b" fill-rule="evenodd" stroke="#000" stroke-width="2"/>
 <path d="m641.5,788.75 5.5,1.25v1 1l-1.75,2.5q-1.75,2.5-.5,6.75l1.25,4.25-1.75,1.25q-1.75,1.25-1.75,7.25v8 3 1l2.5,2.5q2.5,2.5 3.5,2.5t1.25,2l.25,2-1.5,19q-1.5,19 1,20.25l2.5,1.25-.75.75q-.75.75-.5,36.25l.25,35.5-.75,1-.75,1-5.75.5-5.75.5-1-.5-1-.5-2.25-50q-2.25-50-3-69l-.75-19h.5 .5l-.5-11.5-.5-11.5 3-.75q3-.75 8.5.5z" fill="#fff" fill-rule="evenodd" stroke="#000" stroke-width="2"/>
 <path d="m650.25 949 0.75-1v29h-1l-0.25-3.5q-0.25-3.5-1.5-3.75l-1.25-0.25-2 0.25-2 0.25h-4l-0.75-8.5q-0.75-8.5-0.5-9.5l0.25-1 5.75-0.5 5.75-0.5 0.75-1z" fill-rule="evenodd" stroke="#000" stroke-width="2"/>
 <path d="m649.75,973.5 .25,3.5v14 14h-1.5q-1.5,0-3.25-16l-1.75-16-.25-1.5-.25-1.5 2-.25 2-.25 1.25.25q1.25.25 1.5,3.75z" fill="#fff" fill-rule="evenodd" stroke="#000" stroke-width="2"/>
 <path d="m276,664.5v.5l-.5.75q-.5.75-5.75,3.5t-9.5,5-7.75,3.5l-3.5,1.25v1 1l-2.25,2q-2.25,2-5.75,7l-3.5,5-1.75,1-1.75,1-1.75-1-1.75-1-1.75.75q-1.75.75-4.5,2l-2.75,1.25-.25-.5-.25-.5-1.25-1q-1.25-1-12.5-8.25t-24.75-15.5l-13.5-8.25-2.5-6.5-2.5-6.5v-.5-.5l2.25-1q2.25-1 3.75-2t2.25-.75 3.75.25 8.5-.25 5.5,1.25v1.5l4.5-.25q4.5-.25 7,.25t20.5,4.25 18.25,2.75l.25-1 3.25,1.75q3.25,1.75 7.75,3.25t6.5,2 10,.75l8,.25v.5z" fill="#a6805b" fill-rule="evenodd" stroke="#000" stroke-width="2"/>
 <path d="m239,526.75 1,4.25-.75,1q-.75,1-1.25,2l-.5,1-.25-.25q-.25-.25-13.25,1.25t-20.25,3.25-9,3-3.75,2.5l-2,1.25 1,7.25 1,7.25 3.75,2.25q3.75,2.25 6.5,6.5t4.75,6.25l2.25,2.25 .25.25-1.25,1.75q-1.25,1.75-3.5,3.5t-3.25,7.75-.5,9.5l.5,3.5-.75,2.25q-.75,2.25-4,2.5t-4,1-3.75.75h-3l-7-3q-7-3-11-3.5t-5,0l-1,.5-1.25,1.25q-1.25,1.25.25,8.25t4.75,10.75l3.25,3.75-3.25.75q-3.25.75-5,4t-3.75,3.5-2.5,2.75l-.5,2.5-5.25-10q-5.25-10-10.25-23.5t-6.5-28l-1.5-14.5 6-10.5q6-10.5 12.75-16.75t9.25-10.25l2.5-4h4.5q4.5,0 5-.5t9.5-5l14-7q5-2.5 8.5-4l3.5-1.5 6.5,1q6.5,1 11,3t8,5.5 5.5,5 3,5.75z" fill-rule="evenodd" stroke="#000" stroke-width="2"/>
 <path d="m239.25,532 .75-1 1,2.75q1,2.75 6.5,6.5t8,7.75 3.75,3.5l1.25-.5 .5,1.5q.5,1.5 2,4.5t4.75,6.25l4,4 .75.75 .5,2.5q.5,2.5-.5,7t-1.25,4.75l-.25.25 .75,2.75q.75,2.75 3.25,8.75t4.5,9l2,3-1.5,19.5-1.5,19.5 2,3.5q2,3.5.75,8.75l-1.25,5.25-2,1.25-2,1.25v-.5-.5l-8-.25q-8-.25-10-.75t-6.5-2-7.75-3.25l-3.25-1.75-.25,1q-.25,1-18.25-2.75t-20.5-4.25-7-.25l-4.5.25v-1.5q0-1.5-5.5-1.25t-8.5.25-3.75-.25-2.25.75-3.75,2l-2.25,1v.5 .5l-3.25-3q-3.25-3-5.5-4.5l-2.25-1.5v-.5-.5l.5-2.5q.5-2.5 2.5-2.75t3.75-3.5 5-4l3.25-.75-3.25-3.75q-3.25-3.75-4.75-10.75t-.25-8.25l1.25-1.25 1-.5q1-.5 5,0t11,3.5l7,3h3q3,0 3.75-.75t4-1 4-2.5l.75-2.25-.5-3.5q-.5-3.5.5-9.5t3.25-7.75 3.5-3.5l1.25-1.75-.25-.25-2.25-2.25q-2-2-4.75-6.25t-6.5-6.5l-3.75-2.25-1-7.25-1-7.25 2-1.25q2-1.25 3.75-2.5t9-3 20.25-3.25 13.25-1.25l.25.25 .5-1q.5-1 1.25-2z" fill="#dbb48c" fill-rule="evenodd" stroke="#000" stroke-width="2"/>
 <path d="m464,547.5v2.5l-1,.75q-1,.75-5,.75t-13.75,2.75-13,4-4.25,1.75l-1,.5-6.75,7.75-6.75,7.75v10.5 11q0,.5-1.25,5l-1.25,4.5 1.75,1q1.75,1 3,2.75t3.25,2l2,.25 .5,10.5 .5,10.5-4.5.25q-4.5.25-10.25,0l-5.75-.25 1.5,4.5q1.5,4.5 3.5,7t2.75,3.75l.75,1.25 6.5-.25 6.5-.25h.5 .5l1,1.75q1,1.75 3.5,3.75t6.25,7.75 4.75,8.25-.25,9.5l-1.25,7-1-.25q-1-.25-6-3l-5-2.75-1-1.75q-1-1.75-4-3.75t-7.75-6.75-6.75-7.25-4.75-6.75-4.75-7-4-2l-2,.75 .75-1.75q.75-1.75-4.75-15.25t-7-18.5 1.5-19.5 5.25-18.25 14.25-15.25 20-14.5 21.5-3.25 16,1.25 4.5,2l2,.5v2.5z" fill="#ab8c6d" fill-rule="evenodd" stroke="#000" stroke-width="2"/>
 <path d="m502.5,656.75 8.5-2.75-2.75,6q-2.75,6-4.5,8.25t-2.25,4.75 0,2.75l.5.25-.5,1-.5,1-.75-.5-.75-.5-4.25,5.25q-4.25,5.25-8.75,10l-4.5,4.75-3-.25q-3-.25-7,1.5l-4,1.75-.25-.5-.25-.5-4.25-1.75q-4.25-1.75-15.25-5l-11-3.25v-.5-.5l1.25-7q1.25-7 .25-9.5t-4.75-8.25-6.25-7.75-3.5-3.75l-1-1.75h-.5-.5v-.5q0-.5 7.5.75t14,2.75 13.75,4.75l7.25,3.25 1.75-.25q1.75-.25 2.75-1t13-.5 20.5-2.5z" fill="#ebc096" fill-rule="evenodd" stroke="#000" stroke-width="2"/>
 <path d="m463,550.75 1-.75 4,1 4,1 1.5,3.25q1.5,3.25 3.75,4.5t2.5,3.75l.25,2.5 3,1q3,1 5,3.75t2,3.5 1.5,3 2.5,5.25 3,3.25l2,.25 .25,4.5 .25,4.5 3.5,4q3.5,4 6,9l2.5,5 1,12q1,12 .5,13.5t-.75,8.5l-.25,7h-.5-.5l-8.5,2.75q-8.5,2.75-20.5,2.5t-13,.5-2.75,1l-1.75.25-7.25-3.25q-7.25-3.25-13.75-4.75t-14-2.75-7.5-.75v.5l-6.5.25-6.5.25-.75-1.25q-.75-1.25-2.75-3.75t-3.5-7l-1.5-4.5 5.75.25q5.75.25 10.25,0l4.5-.25-.5-10.5-.5-10.5-2-.25q-2-.25-3.25-2t-3-2.75l-1.75-1 1.25-4.5q1.25-4.5 1.25-5v-11-10.5l6.75-7.75 6.75-7.75 1-.5q1-.5 4.25-1.75t13-4 13.75-2.75 5-.75z" fill="#e8bf97" fill-rule="evenodd" stroke="#000" stroke-width="2"/>
 <path d="m638.25 663-2.25-6h1l2 2.75q2 2.75 6.5 4l4.5 1.25v-2h2v29h-1l-5.25-11.5q-5.25-11.5-7.5-17.5z" fill="#947353" fill-rule="evenodd" stroke="#000" stroke-width="2"/>
 <path d="m637.75 649.5 1.25-0.5 1.75 1.5q1.75 1.5 4 6.75t3.75 5.5l1.5 0.25v2l-4.5-1.25q-4.5-1.25-6.5-4l-2-2.75h-1l0.25-3.5q0.25-3.5 1.5-4z" fill="#fff" fill-rule="evenodd" stroke="#000" stroke-width="2"/>
 <path d="m658.5,531h.5l-.5,3.5-.5,3.5h-.5-.5l-2,5.75-2,5.75 .25.25q.25.25 1.5,2.75t.5,23-2,54l-1.25,33.5h-1-1l-1.5-.25q-1.5-.25-3.75-5.5t-4-6.75l-1.75-1.5-4.25-14q-4.25-14-5.75-28t1-19.5 5.5-17.5 5-19 3.5-11.5 3.5-8.5 3.25-3.5 4.25-.5l3-1v2.5q0,2.5.5,2.5z" fill="#f5d1ae" fill-rule="evenodd" stroke="#000" stroke-width="2"/>
 <path d="m728,120.75-1,.25-2-1q-2-1-3-1.25t-3.75.5l-2.75.75-1,1q-1,1-2.75,2.5l-1.75,1.5-.25-2.5q-.25-2.5 3.25-20.5t5.5-50 2.5-32.5l.5-.5 1.5,5q1.5,5 3.5,40t2,37 .25,10.75l.25,8.75-1,.25z" fill-rule="evenodd" stroke="#000" stroke-width="2"/>
 <path d="m725,120 2,1 3.5,4.75q3.5,4.75 6,5.75l2.5,1-.25.75q-.25.75 2.25,5.25t3.5,6l1,1.5-.5,4q-.5,4 0,12t1.25,24.25 1.75,16.75l1,.5-2,.75q-2,.75.75,22.25t7.25,43.5 5.25,24l.75,2v.5 .5l-3,2.25q-3,2.25-4.25,3l-1.25.75-3.25,7.5q-3.25,7.5-5.25,8.75l-2,1.25 .25,1.75q.25,1.75.75,8.75l.5,7 .25.5 .25.5 1.5,1.75q1.5,1.75 3.5,2l2,.25 2.75,18.5q2.75,18.5 4.75,21l2,2.5-1,6.5q-1,6.5-.25,17.25l.75,10.75 3,.75 3,.75-1,.5q-1,.5 0,18.75l1,18.25-1.5.75q-1.5.75.25,13.25t9.75,32l8,19.5-.5,2q-.5,2 2.5,8.5l3,6.5 .25,4 .25,4-.25,1-.25,1-1.75,3.5-1.75,3.5-1.75,2-1.75,2-4.5,10q-4.5,10-6,15t-.75,5.5l.75.5-2,1.75-2,1.75-1-.25q-1-.25-.25,9.75t-.75,27-2.5,19-1.25,63.5l-.25,61.5-35.5-.75q-35.5-.75-47,.25t-19,2.75l-7.5,1.75v-.5-.5l.75-31.5q.75-31.5 1-32.5l.25-1-1-.5-1-.5 .25-10q.25-10 0-11l-.25-1h.5 .5v-14.5-14.5l1.25-33.5q1.25-33.5 2-54t-.5-23-1.5-2.75l-.25-.25 2-5.75 2-5.75h.5 .5l6.5-1.75q6.5-1.75 33-4.75t36.5-2.25l10,.75-2-17-2-17-2.5-.25q-2.5-.25-21.5.25t-33,3.75l-14,3.25v-1-1l.5-3.5q.5-3.5-.5-3.5t2.75-7l3.75-7 .5-2q.5-2-.5-6l-1-4 1.5-46.5q1.5-46.5 1.25-57.5t-1.25-11.25l-1-.25 1.5-13.25q1.5-13.25.5-14.25l-1-1h1q1,0 2.75-15t2-16l.25-1 2-1.25q2-1.25 5.25-4.5l3.25-3.25 .25,1.5q.25,1.5 14.25-1.25t14.75-5.5l.75-2.75 .25,2.5q.25,2.5 8.25,3.75t8.75-.5l.75-1.75 .25,2.5q.25,2.5 3.25,3.25l3,.75 2.5.25q2.5.25-2.75-33.75t-6.25-38l-1-4-5.25-2.75q-5.25-2.75-16.75-2.25t-16.75,3.75l-5.25,3.25-.75-.5-.75-.5 .25-22q.25-22 2.5-34.5l2.25-12.5 3.25-5q3.25-5 5.5-8.5l2.25-3.5 1.75-1.5q1.75-1.5 2.75-2.5l1-1 2.75-.75q2.75-.75 3.75-.5t3,1.25z" fill="#fff" fill-rule="evenodd" stroke="#000" stroke-width="2"/>
 <path d="m658,538.5v-.5l.5-3.5 .5-3.5 1.75-5q1.75-5 4.5-15l2.75-10h.5 .5v1 1l14-3.25q14-3.25 33-3.75t21.5-.25l2.5.25 2,17 2,17-10-.75q-10-.75-36.5,2.25t-33,5.25l-6.5,2.25v-.5z" fill="#2d1487" fill-rule="evenodd" stroke="#000" stroke-width="2"/>
 <path d="m684,290.75-2,1.25-.5-.25-.5-.25 4.25-24.25q4.25-24.25 6.5-40.25l2.25-16 .75.5 .75.5 5.25-3.25q5.25-3.25 16.75-3.75t16.75,2.25l5.25,2.75 1,4q1,4 6.25,38t2.75,33.75l-2.5-.25-3-.75q-3-.75-3.25-3.25l-.25-2.5-.75,1.75q-.75,1.75-8.75.5t-8.25-3.75l-.25-2.5-.75,2.75q-.75,2.75-14.75,5.5t-14.25,1.25l-.25-1.5-3.25,3.25q-3.25,3.25-5.25,4.5z" fill="#2d1487" fill-rule="evenodd" stroke="#000" stroke-width="2"/>
 <path d="m724.5,776.25 35.5.75 4,1.75 4,1.75-1,.25q-1,.25-1,2.25v2h-.5-.5l-2.25,17.5q-2.25,17.5-3,19.5t.25,2-1,10.5l-2,10.5h1q1,0 1.5,4.25l.5,4.25-.75,2.25q-.75,2.25-2.75,18.25t-1.5,32-3,22.5-4.75,7l-1.25.5-.5-32q-.5-32 2-32.5l2.5-.5-.75-19.5q-.75-19.5-1.25-23t-2-17.5l-1.5-14-27.75-1-27.75-1-1.25,33.5q-1.25,33.5-2,37.5l-.75,4 2,.25q2,.25 2,33v32.75l-14.5.5-14.5.5-1-3q-1-3-2-3.25t-2.25-28.5-.75-32.25-.25-34.5-1.25-30.5h-.5l-1-7q-1-7-2.5-6.5l-1.5.5v-1-1l-.5-1.75-.5-1.75 1-.5q1-.5 2-3.25t1.5-2.75h.5v.5 .5l7.5-1.75q7.5-1.75 19-2.75t47-.25z" fill-rule="evenodd" stroke="#000" stroke-width="2"/>
 <path d="m745.5 904 0.5 32v1h3q3 0 5.25 12.5l2.25 12.5 5.75 3.75q5.75 3.75 16 6t11.25 4.75l1 2.5 0.75-4.5 0.75-4.5 0.5 17.5 0.5 17.5h-66v1h-77v-29h1v-29l-0.25-35.5q-0.25-35.5 0.5-36.25l0.75-0.75-2.5-1.25q-2.5-1.25-1-20.25l1.5-19h1l0.25-14.5q0.25-14.5 0.5-15l0.25-0.5h0.5q0.5 0 1.25 30.5t0.25 34.5 0.75 32.25 2.25 28.5 2 3.25l1 3 14.5-0.5 14.5-0.5v-32.75q0-32.75-2-33l-2-0.25 0.75-4q0.75-4 2-37.5l1.25-33.5 27.75 1 27.75 1 1.5 14q1.5 14 2 17.5t1.25 23l0.75 19.5-2.5 0.5q-2.5 0.5-2 32.5z" fill="#fff" fill-rule="evenodd" stroke="#000" stroke-width="2"/>
 <path d="m889.75,343 1.25,16v1 1h-3q-3,0-3.25-1t-3-5.75l-2.75-4.75-4,1q-4,1-5.25-.75t-5-1.25l-3.75.5-.75-3.5q-.75-3.5-4.5-6.25t-12.25-4l-8.5-1.25 .75,1.5q.75,1.5 1.25,3t-4.25,2l-4.75.5-1.25,4q-1.25,4-3,2.25t-3.75,1.75-3.5,4-3,1.75l-1.5,1.25-1-.25q-1-.25-2.75-2t-4-2.75-4.25-2.75-6.25-4l-4.25-2.25-.5-1q-.5-1-1.5-4l-1.25-3.75q-.25-.75-2.25-3l-2-2.25-9-.75q-9-.75-11-.25l-2,.5-2.25,3.75q-2.25,3.75-5.5,4.25t-5.75,2l-2.5,1.5-.25-.5-.25-.5-.5-7q-.5-7-.75-8.75l-.25-1.75 2-1.25q2-1.25 5.25-8.75l3.25-7.5 1.25-.75q1.25-.75 4.25-3l3-2.25v-.5-.5l6.75-5q6.75-5 13.5-9.75t15.75-8.25 17-5 21.5,1.5 22.5,8.25 9,6.25 3.5,1.75l3.5.75 1.5,2.5q1.5,2.5 3.25,4.75t5.25,8.75 4.5,11.5 .5,9 .75,20z" fill="#cdcf9d" fill-rule="evenodd" stroke="#000" stroke-width="2"/>
 <path d="m891,360v-1h.5 .5l2,12.5q2,12.5 5,12l3-.5v1 1l-.75,3q-.75,3-18,19.75t-19.25,18.75-12.25,13.75-13,16.75l-2.75,5h-.5-.5l-.5-2-.5-2-3.5.25q-3.5.25-4.5,1.5l-1,1.25-3.5,1.25q-3.5,1.25-12,2.75t-13,0l-4.5-1.5-1.75-2.25q-1.75-2.25-4-3.75l-2.25-1.5-.25-6.5-.25-6.5-4-3-4-3 .5-3.5q.5-3.5-1.25-9l-1.75-5.5-3.5,1-3.5,1-3-.75-3-.75-.75-10.75q-.75-10.75.25-17.25l1-6.5-2-2.5q-2-2.5-4.75-21l-2.75-18.5-2-.25q-2-.25-3.5-2l-1.5-1.75 2.5-1.5q2.5-1.5 5.75-2t5.5-4.25l2.25-3.75 2-.5q2-.5 11,.25l9,.75 2,2.25q2,2.25 2.25,3l1.25,3.75q1,3 1.5,4l.5,1 4.25,2.25q4.25,2.25 6.25,4t4.25,2.75 4,2.75 2.75,2l1,.25 1.5-1.25q1.5-1.25 3-1.75t3.5-4 3.75-1.75 3-2.25l1.25-4 4.75-.5q4.75-.5 4.25-2t-1.25-3l-.75-1.5 8.5,1.25q8.5,1.25 12.25,4t4.5,6.25l.75,3.5 3.75-.5q3.75-.5 5,1.25t5.25.75l4-1 2.75,4.75q2.75,4.75 3,5.75t3.25,1h3v-1z" fill="#ebedb9" fill-rule="evenodd" stroke="#000" stroke-width="2"/>
 <path d="m916 401.5v0.5l-6.5 6.75q-6.5 6.75-10.75 12t-12 15-12.5 16-11 14.5-11.5 15.5-8 10.25l-2.75 3h-1l-0.25-2-0.25-2-0.75-1.5-0.75-1.5-2-11.5-2-11.5 0.5-1.5 0.5-1.5h1l2.75-5q2.75-5 13-16.75t12.25-13.75 19.25-18.75 18-19.75l0.75-3 1-0.25 1-0.25 1.5-0.25q1.5-0.25 2.5 4.25t4.5 6.75l3.5 2.25v4z" fill="#fff" fill-rule="evenodd" stroke="#000" stroke-width="2"/>
 <path d="m834.5,460 .5,2-.5,1.5-.5,1.5-.5.25q-.5.25-4.5,5.5l-4,5.25h-.5-.5l1-7.5q1-7.5.5-7.5h-.5l1-1.25q1-1.25 4.5-1.5l3.5-.25 .5,2z" fill="#fff" fill-rule="evenodd" stroke="#000" stroke-width="2"/>
 <path d="m837.5,487.5 .5.5 .75,1.5 .75,1.5 .25,2 .25,2h.5 .5l-.25.5q-.25.5-6.25,8.5l-6,8-.25-.5-.25-.5 1.25-5.5q1.25-5.5 3.5-12t3.25-6.5 1.5.5z" fill="#fff" fill-rule="evenodd" stroke="#000" stroke-width="2"/>
 <path d="m833.5,465.25 .5-.25 2,11.5 2,11.5-.5-.5q-.5-.5-1.5-.5t-3.25,6.5-3.5,12l-1.25,5.5-.75.5-.75.5-1.25,4.5-1.25,4.5-1,.25q-1,.25-3.25,2.5l-4,4q-1.75,1.75-4.25,6t-6,4-4.25,0l-.75.25-.75,4q-.75,4-2.25,4t-2.75,2.5-2.5,4.25-3,4.5-3.5,2.25l-1.75-.5v-.5-.5l1.75-3.5 1.75-3.5 .25-1 .25-1 .5-5.5 .5-5.5 1.25,1q1.25,1 4.75-3t6.5-12.5l3-8.5 2.5-2q2.5-2 7.5-13.5t7.75-17.5l2.75-6 4-5.25q4-5.25 4.5-5.5z" fill="#59594e" fill-rule="evenodd" stroke="#000" stroke-width="2"/>
 <path d="m909.5,408.75 6.5-6.75 1.5.5 1.5.5 1.5,3.25q1.5,3.25.75,5t1,7.5l1.75,5.75-1.5.25q-1.5.25-2.75,2.75t-2.25,5.5-1.25,4.5l-.25,1.5-1.75,1.5q-1.75,1.5-2,2l-.25.5-2,1.5-2,1.5-2.5,6-2.5,6-4,1.25q-4,1.25-7.25,2.5l-3.25,1.25 .5,6q.5,6 .75,6.25l.25.25-4.5,4q-4.5,4-6.25,5.75t-6,6.5-5,6-12.25,11.75-13.5,12.5-4.75,4-5.5,5.5-6,6.25-5.25,4.75-5.25,5.75-5.5,6l-3.5,3.5q-1.25,1.25-3,2.75t-4,4.5-8.25,8.5-8,8.5-4.5,6.5-4.25,5l-1.75,1.5-1.5-1-1.5-1-.75-.5q-.75-.5.75-5.5t6-15l4.5-10 1.75-2 1.75-2v.5 .5l1.75.5q1.75.5 3.5-2.25t3-4.5 2.5-4.25 2.75-2.5 2.25-4l.75-4 .75-.25q.75-.25 4.25,0t6-4 4.25-6l4-4q2.25-2.25 3.25-2.5l1-.25 1.25-4.5 1.25-4.5 .75-.5 .75-.5h.75q.75,0 5.5-6.25t5.75-8l1-1.75 2.75-3q2.75-3 8-10.25t11.5-15.5 11-14.5 12.5-16 12-15 10.75-12z" fill="#612c2c" fill-rule="evenodd" stroke="#000" stroke-width="2"/>
 <path d="m910,444.5 2-1.5 4,.25 4,.25 .75,2.75q.75,2.75.75,11.25v21.5q0,13-.25,13.25l-.25.25 1,2q1,2 .75,4.25t-.75,8.75 0,19 1,13.5 .75,2l.25,1h-1q-1,0-2.5,7.75l-1.5,7.75 .75.75q.75.75 2.25,19.25t8.5,158 8.25,166.5l1.25,27v1 1l-26.5,8.25q-26.5,8.25-43.5,14l-17,5.75v-1-1l-12-2.25-12-2.25-.75-.75q-.75-.75-7.5-3t-9.5-3.5-5.5-2.75l-2.75-1.5-1.75-3q-1.75-3-6.75-18t-9-37.5-7.75-59-7.75-37.5l-4-1v-.5-.5-2q0-2 1-2.25l1-.25-4-1.75-4-1.75 .25-61.5q.25-61.5 1.25-63.5t2.5-19 .75-27 .25-9.75l1,.25 2-1.75 2-1.75 1.5,1 1.5,1 1.75-1.5q1.75-1.5 4.25-5t4.5-6.5 8-8.5 8.25-8.5 4-4.5 3-2.75l3.5-3.5q2.25-2.25 5.5-6t5.25-5.75 5.25-4.75 6-6.25 5.5-5.5 4.75-4 13.5-12.5 12.25-11.75 5-6 6-6.5 6.25-5.75l4.5-4-.25-.25q-.25-.25-.75-6.25l-.5-6 3.25-1.25q3.25-1.25 7.25-2.5l4-1.25 2.5-6 2.5-6 2-1.5zm-8.25,310.25q11.75-1.75 14-1.25l2.25.5 1.25,1.5q1.25,1.5 2.25,5.5t2.5,11 2.25,11l.75,4-9.25,2.5-9.25,2.5-.25-.25q-.25-.25-11.25-.75t-23,2.5-21.75,3.25l-9.75.25-2.5-4q-2.5-4-3.25-12.75l-.75-8.75 3.25-5.25q3.25-5.25 4.5-6.5t2.75-3l1.5-1.75 3.5-.25q3.5-.25 20.5.75t17.5,1 12.25-1.75z" fill="#632e2e" fill-rule="evenodd" stroke="#000" stroke-width="2"/>
 <path d="m901.75,754.75q11.75-1.75 14-1.25l2.25.5 1.25,1.5q1.25,1.5 2.25,5.5t2.5,11 2.25,11l.75,4-9.25,2.5-9.25,2.5-.25-.25q-.25-.25-11.25-.75t-23,2.5-21.75,3.25l-9.75.25-2.5-4q-2.5-4-3.25-12.75l-.75-8.75 3.25-5.25q3.25-5.25 4.5-6.5t2.75-3l1.5-1.75 3.5-.25q3.5-.25 20.5.75t17.5,1 12.25-1.75z" fill="#4f2424" fill-rule="evenodd" stroke="#000" stroke-width="2"/>
 <path d="m765.5,785h.5v.5q0,.5 4,1.5t7.75,37.5 7.75,59 9,37.5 6.75,18l1.75,3 2,12 2,12h-1.5-2-.5l-1.5.25q-1.5.25-2,.25t-2,2.75-3.5,1.25l-2-1.5v.5 .5l-.75,4.5-.75,4.5-1-2.5q-1-2.5-11.25-4.75t-16-6l-5.75-3.75-2.25-12.5q-2.25-12.5-5.25-12.5h-3v-.5-.5l1.25-.5q1.25-.5 4.75-7t3-22.5 1.5-32 2.75-18.25l.75-2.25-.5-4.25q-.5-4.25-1.5-4.25h-1l2-10.5q2-10.5 1-10.5t-.25-2 3-19.5l2.25-17.5h.5z" fill="#732a2a" fill-rule="evenodd" stroke="#000" stroke-width="2"/>
 <path d="m805,954-2-12 2.75,1.5q2.75,1.5 5.5,2.75t9.5,3.5 7.5,3l.75.75 12,2.25 12,2.25v1 1l-1.5.75q-1.5.75-13.25,6l-11.75,5.25 1.25,6 1.25,6-5.25,2.5-5.25,2.5 1.5,7.5q1.5,7.5 1.75,8l.25.5h-3.5q-3.5,0-7.25-17t-4-19.5l-.25-2.5-2-12z" fill-rule="evenodd" stroke="#000" stroke-width="2"/>
 <path d="m805.5 966h1.5l0.25 2.5q0.25 2.5 4 19.5t7.25 17h3.5v1h-95v-1h66l-0.5-17.5-0.5-17.5v-1l2 1.5q2 1.5 3.5-1.25t2-2.75 2-0.25l1.5-0.25h2.5z" fill="#fff" fill-rule="evenodd" stroke="#000" stroke-width="2"/>
 <path d="m940 931v-1h1l1.75 32q1.75 32 2.5 37.5l0.75 5.5-62 0.5-62 0.5v-1l-0.25-0.5q-0.25-0.5-1.75-8l-1.5-7.5 5.25-2.5 5.25-2.5-1.25-6-1.25-6 11.75-5.25q11.75-5.25 13.25-6l1.5-0.75 17-5.75q17-5.75 43.5-14l26.5-8.25v-1z" fill="#c2c2c2" fill-rule="evenodd" stroke="#000" stroke-width="2"/>
</svg>
