<?xml version="1.0" encoding="utf-8"?>
<svg xmlns="http://www.w3.org/2000/svg" xmlns:xlink="http://www.w3.org/1999/xlink" version= "1.1" width="1618px" height="1000px" viewBox="-449 214 1618 1000">
<g id="layer1">
<g style="fill:rgb(246,86,86); fill-opacity:0.99607843; stroke-linejoin: miter">
<path d="M-449.001,212.69742C-449.34622,212.69742,-449.67728,212.83455,-449.92136,213.07864C-450.16544,213.32274,-450.30258,213.6538,-450.30258,213.999L-450.30157,1214.0C-450.30157,1214.7189,-449.71884,1215.3016,-449.0,1215.3016L1169.001,1215.3026C1169.3462,1215.3026,1169.6772,1215.1655,1169.9214,1214.9214C1170.1655,1214.6772,1170.3026,1214.3462,1170.3026,1214.001L1170.3016,214.0C1170.3016,213.28116,1169.7189,212.69843,1169.0,212.69843L-449.001,212.69742 Z"/>
</g>
<g style="fill:rgb(103,118,120); fill-opacity:0.99607843; stroke-linejoin: miter">
<path d="M196.59546,1045.6906L196.54541,1045.7118L187.61475,1054.7512L187.61435,1054.7513L179.63461,1062.9182L179.6854,1063.0381L362.27335,1061.7313L362.2747,1061.7295L545.99146,1060.3109L546.05884,1060.2593L547.8199,1053.806L547.8197,1053.8063L547.8215,1053.8002C548.71124,1050.6543,549.2125,1048.0275,549.2636,1047.0275L549.2553,1047.0283L549.21735,1047.0726L549.20734,1046.9413C544.4581,1046.591,503.14758,1046.3564,453.49066,1046.1775L453.4833,1046.1783L453.48233,1046.1753L446.8308,1046.1641L445.32147,1046.1615L443.78918,1046.1589C391.317,1046.0697,318.93793,1045.9467,277.00012,1045.8163L276.9944,1045.8173L276.9932,1045.8142L196.59546,1045.6906 Z"/>
</g>
<g style="fill:rgb(103,118,120); fill-opacity:0.99607843; stroke-linejoin: miter">
<path d="M662.4448,1044.1766L662.442,1044.1768C661.5776,1044.2085,659.7048,1044.2825,656.78345,1044.4019L656.78156,1044.3997L645.5761,1044.8535L623.9676,1045.7286L623.96576,1045.7269C604.5198,1046.5087,588.36346,1047.2694,585.98895,1047.5283L585.99713,1047.6733L585.9886,1047.674C585.9867,1047.6776,585.9848,1047.6826,585.9828,1047.687L585.9828,1047.6879L585.9167,1047.5889C585.5653,1048.4414,584.6527,1051.1942,583.7114,1054.4321L583.71124,1054.4326L581.9654,1060.5043L582.0607,1060.6301L662.9713,1060.1421L663.06946,1060.0426L663.021,1052.0491C662.9977,1048.2183,662.7783,1045.241,662.55115,1044.2533L662.4546,1044.1765 Z"/>
</g>
<g style="fill:rgb(0,0,0); fill-opacity:0.99607843; stroke-linejoin: miter">
<path d="M253.7027,1050.7948L253.70285,1050.7971L253.70233,1050.7959L253.7027,1050.7948 Z"/>
</g>
<g style="fill:rgb(255,255,255); fill-opacity:0.99607843; stroke-linejoin: miter">
<path d="M-10.273848,989.7626L-10.273765,989.7633Q-10.273681,989.7645,-10.273848,989.7626 Z"/>
</g>
<g style="fill:rgb(255,255,255); fill-opacity:1.0; stroke-linejoin: miter">
<path d="M190.55493,1156.4858L190.55493,1156.4863L190.55493,1156.4858 Z"/>
</g>
<g style="fill:rgb(60,70,79); fill-opacity:0.99607843; stroke-linejoin: miter">
<path d="M38.78227,433.08325L38.782253,433.08368L38.782238,433.08417L38.782253,433.08368L38.78227,433.08325L38.782253,433.08368L38.782238,433.08417Q38.782253,433.08368,38.78227,433.08325 Z"/>
</g>
<g style="fill:rgb(60,70,79); fill-opacity:0.99607843; stroke-linejoin: miter">
<path d="M60.428192,373.9405L60.428177,373.94095L60.42829,373.9415L60.428177,373.94095L60.428192,373.9405L60.428177,373.94095L60.42829,373.9415Q60.428177,373.94095,60.428192,373.9405 Z"/>
</g>
<g style="fill:rgb(60,70,79); fill-opacity:0.99607843; stroke-linejoin: miter">
<path d="M60.428192,373.9405L60.428177,373.94095L60.42829,373.9415L60.428177,373.94095L60.428192,373.9405L60.428177,373.94095L60.42829,373.9415Q60.428177,373.94095,60.428192,373.9405 Z"/>
</g>
<g style="fill:rgb(60,70,79); fill-opacity:0.99607843; stroke-linejoin: miter">
<path d="M77.09579,320.91217L77.09577,320.9129L77.09587,320.9134L77.09577,320.9129L77.09579,320.91217L77.09577,320.9129L77.09587,320.9134Q77.09577,320.9129,77.09579,320.91217 Z"/>
</g>
<g style="fill:rgb(60,70,79); fill-opacity:0.99607843; stroke-linejoin: miter">
<path d="M77.09579,320.91217L77.09577,320.9129L77.09587,320.9134L77.09577,320.9129L77.09579,320.91217L77.09577,320.9129L77.09587,320.9134Q77.09577,320.9129,77.09579,320.91217 Z"/>
</g>
<g style="fill:rgb(60,70,79); fill-opacity:0.99607843; stroke-linejoin: miter">
<path d="M77.09579,320.91217L77.09577,320.9129L77.09587,320.9134L77.09577,320.9129L77.09579,320.91217L77.09577,320.9129L77.09587,320.9134Q77.09577,320.9129,77.09579,320.91217 Z"/>
</g>
<g style="fill:rgb(60,70,79); fill-opacity:0.99607843; stroke-linejoin: miter">
<path d="M77.09579,320.91217L77.09577,320.9129L77.09587,320.9134L77.09577,320.9129L77.09579,320.91217L77.09577,320.9129L77.09587,320.9134Q77.09577,320.9129,77.09579,320.91217 Z"/>
</g>
<g style="fill:rgb(60,70,79); fill-opacity:0.99607843; stroke-linejoin: miter">
<path d="M54.20587,414.72986L54.20597,414.73035L54.20607,414.73087L54.20597,414.73035L54.20587,414.72986L54.20597,414.73035L54.20607,414.73087Q54.20597,414.73035,54.20587,414.72986 Z"/>
</g>
<g style="fill:rgb(34,43,50); fill-opacity:0.99607843; stroke-linejoin: miter">
<path d="M112.42123,341.77774L112.42123,341.77798L112.4212,341.77847L112.42123,341.77798L112.42123,341.77774L112.42123,341.77798L112.4212,341.77847Q112.42123,341.77798,112.42123,341.77774 Z"/>
</g>
<g style="fill:rgb(34,43,50); fill-opacity:0.99607843; stroke-linejoin: miter">
<path d="M112.42123,341.77774L112.42123,341.77798L112.4212,341.77847L112.42123,341.77798L112.42123,341.77774L112.42123,341.77798L112.4212,341.77847Q112.42123,341.77798,112.42123,341.77774 Z"/>
</g>
<g style="fill:rgb(255,197,161); fill-opacity:0.99607843; stroke-linejoin: miter">
<path d="M279.5353,825.31226L281.80896,825.82697Q304.95593,830.70734,312.1303,836.8851L317.509,841.32025Q345.94424,869.4187,355.19748,876.74414Q371.7139,890.59705,381.1333,895.1741Q392.7923,901.28455,408.69333,903.2393Q426.92764,905.5478,433.34982,902.1439Q458.91626,890.31915,495.0372,874.8381Q505.69763,869.70654,509.32184,867.02484Q514.4598,863.59015,518.4657,859.4007L536.1544,838.7244L541.93616,834.0721L557.79663,823.39856Q560.6984,821.3954,565.81616,814.7516L581.17316,789.0916Q583.5258,784.8517,583.9011,780.4861Q581.33905,761.142,568.1555,763.09717L572.70825,724.67786Q572.4804,714.6951,568.0725,714.58813Q562.6931,713.5124,553.9995,717.0482Q548.2742,721.1209,542.08453,729.19336Q535.19165,737.5295,535.91583,755.2605Q528.12274,762.18335,523.22943,769.43353L508.15173,797.6742Q505.08655,802.9812,498.8347,810.0071Q493.21948,815.91644,488.00003,818.3211L470.60745,825.6305Q467.15738,826.8744,465.88898,826.733Q464.53235,827.01245,461.60623,825.28595Q451.5243,813.6496,441.66556,808.72894L433.48883,805.29156Q413.9758,799.2439,397.8379,792.388Q384.25467,786.5389,376.119,780.42126Q370.61353,776.7552,360.21255,765.7286L325.68665,725.87494Q314.91714,715.61743,310.32764,713.81616Q293.92493,704.08594,263.01895,716.3981Q246.47543,722.4949,227.47545,735.1795L279.5353,825.31226 Z"/>
</g>
<g style="fill:rgb(255,241,232); fill-opacity:0.99607843; stroke-linejoin: miter">
<path d="M438.19046,816.20624L438.19046,816.20715Q448.64966,822.82056,450.6202,825.46234Q454.30243,829.2296,454.5889,833.91907Q454.66318,835.4676,454.36526,836.9955Q454.06702,838.52386,453.42825,839.9385L452.7121,841.3017Q449.96124,845.51636,446.03955,846.3591Q444.27966,846.8142,441.603,846.65686Q440.9485,846.71686,437.1203,845.9507Q436.37946,845.84515,432.29312,844.58203Q429.83188,843.80597,423.8337,841.5047L438.19046,816.20624 Z"/>
</g>
<g style="fill:rgb(255,255,255); fill-opacity:0.99607843; stroke-linejoin: miter">
<path d="M187.48535,725.37134L220.07983,715.99023L252.67429,706.6091Q271.33032,771.4262,289.98645,836.2433L224.79796,855.007Q206.14159,790.18933,187.48535,725.37134 Z"/>
</g>
<g style="fill:rgb(34,43,50); fill-opacity:1.0; stroke-linejoin: miter">
<path d="M45.520206,432.6985L45.514248,432.6988L45.514233,432.69977L45.514248,432.6988L45.520206,432.6985 Z M663.0116,1044.2418C662.95776,1044.2552,662.9097,1044.2598,662.86633,1044.2601L662.86523,1044.2615L663.00195,1044.2418 Z M549.5991,1047.0552C549.62445,1047.06,549.6356,1047.0637,549.63556,1047.0652L549.63086,1047.0657C549.6241,1047.064,549.6098,1047.0613,549.5907,1047.0552 Z M585.74475,1047.6619C585.7332,1047.6652,585.7248,1047.6667,585.72064,1047.6675L585.7176,1047.6682C585.7176,1047.6667,585.7232,1047.6646,585.7358,1047.6616 Z M196.59552,1045.7611L276.9931,1045.8848L276.992,1045.8857C319.77246,1046.019,394.11227,1046.1449,446.8307,1046.2345L453.48227,1046.2456L453.48096,1046.2463C503.1488,1046.4269,544.4519,1046.6613,549.2022,1047.0115L549.19385,1047.0127C549.1461,1047.9971,548.6465,1050.6249,547.75336,1053.7814L547.7518,1053.7875L545.99066,1060.2407L362.27234,1061.6593L362.27295,1061.6598L179.68495,1062.9679L187.66486,1054.8007L196.59552,1045.7611 Z M662.45526,1044.2751C662.6795,1045.251,662.899,1048.2177,662.9223,1052.0496L662.97064,1060.0432L582.0602,1060.5316L583.8061,1054.4595C584.74774,1051.2208,585.66077,1048.4674,586.00854,1047.6241L585.9996,1047.6254C588.37103,1047.3678,604.51965,1046.6069,623.9698,1045.8252L623.9698,1045.826L645.5803,1044.9515L656.7855,1044.4984L656.7855,1044.4993C659.65533,1044.3828,661.63354,1044.305,662.4455,1044.2754 Z M43.049015,1136.4518L43.04555,1136.4528L43.041416,1136.452L43.04898,1136.4528 Z M51.75504,432.5583C51.751358,432.55817,51.747425,432.55823,51.743626,432.55853L45.514248,432.6988L45.514233,432.69977L45.502632,432.69897C42.10788,432.8228,31.291817,433.50092,21.483686,434.27582L21.483543,434.27655L21.435642,434.2793L21.4356,434.28046L21.386269,434.2834L21.38636,434.28406C3.5467124,435.61487,3.323048,435.65125,-33.423435,445.96802L-33.423363,445.96918C-67.049164,455.2669,-71.003265,456.3694,-70.399475,459.1527L-70.38994,459.19122L-70.39068,459.19214C-69.832275,461.81696,-46.087467,605.3327,-17.39818,779.4971L-6.685378,844.5593L1.570591,894.7012C37.900375,1115.3285,41.049995,1134.2695,42.192997,1136.0L42.192997,1136.0002C42.402897,1136.3176,42.67523,1136.4343,42.938602,1136.4504L42.93512,1136.4514C43.15153,1136.693,43.490036,1137.694,43.49879,1139.1436L43.51673,1142.1073C43.517902,1142.2899,43.591614,1142.4645,43.72176,1142.593C43.851654,1142.7213,44.02731,1142.7931,44.210094,1142.792L723.06744,1138.6772C723.44037,1138.6748,723.744,1138.3765,723.7522,1138.0032L724.2338,1116.3527C724.57056,1104.495,724.73376,1080.7839,724.63043,1063.7272L724.4431,1032.7838C724.4407,1032.4033,724.13007,1032.0966,723.7495,1032.0988L155.5752,1035.5396L155.5509,1031.5306L155.52243,1026.8326C155.52089,1026.5808,155.38219,1026.3499,155.1604,1026.23C155.05685,1026.1743,154.94287,1026.1469,154.8292,1026.1476C154.69981,1026.1482,154.57085,1026.1858,154.45822,1026.2587L151.91496,1027.9081L151.89627,1027.921C151.1733,1028.4243,150.6822,1028.6538,150.40369,1028.7362L150.40375,1028.737C149.28557,1019.8883,109.46448,779.2009,108.43927,775.033L108.44066,775.0337C108.44342,775.03284,108.41025,774.90015,108.32588,774.7723L108.32799,774.7731C108.14395,774.4998,107.82754,774.4469,107.81006,774.4444L107.81028,774.44507C107.53768,774.384,107.02471,774.3706,106.41694,774.3743C103.63878,774.3911,96.95313,774.8027,89.32479,775.3996L89.32298,775.4007C82.023605,775.91205,77.60673,776.19055,74.74964,776.2078C71.37961,776.2283,70.32394,775.881,69.329056,775.2262L69.31383,775.21655C66.836815,773.67786,65.67577,770.34515,66.5949,767.34064L66.59611,767.3367C67.5223,764.2383,71.8648,762.9042,89.21905,761.96674L89.21771,761.9677C98.6301,761.54456,104.37257,760.9063,105.48484,760.09247L105.48491,760.0937C105.62729,759.9886,105.90153,759.7433,105.89912,759.33905C105.89883,759.30023,105.895134,759.26404,105.89449,759.2582L105.89453,759.2572C105.74795,757.7655,93.807495,684.3957,79.16075,595.5707L79.160835,595.57135L52.439182,433.13556C52.383984,432.80084,52.093376,432.5562,51.75504,432.5583 Z"/>
</g>
<g style="fill:rgb(34,43,50); fill-opacity:0.32941177; stroke-linejoin: miter">
<path d="M894.51465,1133.281L889.98895,1136.7323Q857.72833,1147.2744,700.9335,1154.4274Q543.0536,1161.5825,329.04654,1161.7076Q124.801834,1161.3074,2.3033695,1154.1049Q-36.94633,1151.7743,-62.36476,1148.8995L-83.73134,1145.9155Q-101.34356,1142.8086,-101.56239,1139.316Q-96.28686,1128.5631,44.20159,1120.5924Q184.68982,1112.622,396.32324,1111.0691Q607.95966,1110.0575,748.53424,1116.3252Q889.10913,1122.5927,894.51465,1133.281 Z"/>
</g>
<g style="fill:rgb(34,43,50); fill-opacity:0.99607843; stroke-linejoin: miter">
<path d="M85.54496,720.94104L92.24906,719.801L98.953156,718.6613Q105.97302,759.9306,112.99304,801.1991Q106.28904,802.3397,99.585144,803.4811Q92.56504,762.211,85.54496,720.94104 Z"/>
</g>
<g style="fill:rgb(68,197,229); fill-opacity:0.99607843; stroke-linejoin: miter">
<path d="M-29.381292,475.86804L8.684621,463.94196L46.750328,452.01605L136.2568,1018.41235Q103.524155,1050.9509,70.79139,1083.489L-29.381292,475.86804 Z"/>
</g>
<g style="fill:rgb(34,43,50); fill-opacity:0.99607843; stroke-linejoin: miter">
<path d="M314.34894,567.6931L314.34897,567.6931L314.34897,567.6936L314.34897,567.6931L314.34894,567.6931L314.34897,567.6931L314.34897,567.6936Q314.34897,567.6931,314.34894,567.6931 Z"/>
</g>
<g style="fill:rgb(34,43,50); fill-opacity:0.99607843; stroke-linejoin: miter">
<path d="M314.34894,567.6931L314.34897,567.6931L314.34897,567.6936L314.34897,567.6931L314.34894,567.6931L314.34897,567.6931L314.34897,567.6936Q314.34897,567.6931,314.34894,567.6931 Z"/>
</g>
<g style="fill:rgb(34,43,50); fill-opacity:0.99607843; stroke-linejoin: miter">
<path d="M314.34894,567.6931L314.34897,567.6931L314.34897,567.6936L314.34897,567.6931L314.34894,567.6931L314.34897,567.6931L314.34897,567.6936Q314.34897,567.6931,314.34894,567.6931 Z"/>
</g>
<g style="fill:rgb(34,43,50); fill-opacity:0.99607843; stroke-linejoin: miter">
<path d="M314.34894,567.6931L314.34897,567.6931L314.34897,567.6936L314.34897,567.6931L314.34894,567.6931L314.34897,567.6931L314.34897,567.6936Q314.34897,567.6931,314.34894,567.6931 Z"/>
</g>
<g style="fill:rgb(34,43,50); fill-opacity:0.99607843; stroke-linejoin: miter">
<path d="M35.725903,739.8831L119.03526,720.83887L202.3445,701.7948Q221.38997,785.103,240.43561,868.4116Q157.12654,887.4579,73.81748,906.5041Q54.77169,823.19366,35.725903,739.8831 Z"/>
</g>
<g style="fill:rgb(255,255,255); fill-opacity:0.99607843; stroke-linejoin: miter">
<path d="M216.03914,498.4532L421.50638,498.45325L626.97375,498.45343L626.9738,674.28503Q421.50644,674.2852,216.03915,674.2854Q216.03915,586.36926,216.03914,498.4532"/>
</g>
<g style="fill:rgb(55,72,80); fill-opacity:0.99607843; stroke-linejoin: miter">
<path d="M215.9904,471.33472L421.49988,471.33484L627.0095,471.33502Q627.0095,492.09668,627.0095,512.8584Q421.49988,512.8585,215.9904,512.85876Q215.9904,492.09674,215.9904,471.33472"/>
</g>
<g style="fill:rgb(255,0,0); fill-opacity:0.99607843; stroke-linejoin: miter">
<path d="M257.29938,648.7178L257.29938,648.71796Q286.6412,597.37024,315.983,546.02203Q345.32486,597.3699,374.6666,648.7178L257.29938,648.71796"/>
</g>
<g>
<g style="fill:rgb(255,255,255); fill-opacity:1.0; stroke-linejoin: miter">
<path d="M309.25885,570.06696L312.09387,620.095L316.34616,620.0949L319.51462,570.06696 Z M314.42844,623.0131Q311.76028,623.01324,310.67633,624.43066Q309.50906,625.9315,309.4257,627.8492Q309.50906,629.76697,310.59302,631.1845Q311.76028,632.6019,314.42844,632.60187Q316.92987,632.60187,318.01376,631.18445Q319.09775,629.7669,319.2645,627.8491Q319.09775,625.93146,318.01376,624.51404Q316.92987,623.0131,314.42844,623.0131 Z"/>
</g>
</g>
<g>
<g style="fill:rgb(0,0,0); fill-opacity:1.0; stroke-linejoin: miter">
<path d="M440.24103,572.0338Q445.00296,572.0338,447.3286,573.8611Q449.7096,575.7437,449.7096,579.2875Q449.7096,581.17004,449.10052,582.5821Q448.49142,583.9665,447.21786,585.0738Q445.8336,586.26434,444.1724,586.7904Q442.40048,587.34406,439.90875,587.34406L434.7592,587.34406L434.7592,572.0338 Z M478.1708,572.0338Q482.93277,572.0338,485.2584,573.8611Q487.6394,575.7437,487.6394,579.2875Q487.6394,581.17004,487.0304,582.5821Q486.42123,583.9665,485.14767,585.0738Q483.7634,586.26434,482.1022,586.7904Q480.33035,587.34406,477.83862,587.34406L472.68906,587.34406L472.68906,572.0338 Z M558.84796,572.0338Q563.60986,572.0338,565.9355,573.8611Q568.31647,575.7437,568.31647,579.2875Q568.31647,581.17004,567.7074,582.5821Q567.0983,583.9665,565.82477,585.0738Q564.44055,586.26434,562.7793,586.7904Q561.00745,587.34406,558.5157,587.34406L553.36615,587.34406L553.36615,572.0338 Z M520.41974,572.14453Q523.7974,572.14453,526.4276,573.2243Q529.0855,574.304,530.96814,576.3527Q532.6847,578.23535,533.79205,581.3916Q534.8165,584.354,534.8165,588.147L534.8718,588.147Q534.8718,591.8846,533.8475,594.8469Q532.82306,597.8093,530.96814,599.83044Q529.0578,601.90686,526.4276,602.9866Q523.659,604.1217,520.4751,604.1217Q517.2912,604.1217,514.52264,602.9866Q511.89246,601.90686,509.98212,599.83044Q508.04413,597.7263,507.04742,594.8469Q506.023,591.8846,506.023,588.147Q506.023,584.354,507.04742,581.3916Q508.07178,578.42926,509.98212,576.3527Q511.8648,574.304,514.52264,573.2243Q517.15283,572.14453,520.41974,572.14453 Z M392.01187,567.7425L392.01187,570.1235Q392.01187,571.03705,392.8425,571.2032Q393.34085,571.3693,396.08176,571.8676L396.08176,604.26013L392.8425,604.86926Q392.01187,605.0354,392.01187,605.949L392.01187,608.32996L421.1376,608.32996L421.1376,598.91675L418.4244,598.91675Q417.31696,598.91675,417.1785,599.83044Q417.1785,600.1626,416.84628,603.9002L401.6467,603.9002L401.6467,590.0019L416.5971,590.0019L416.5971,585.7106L401.6467,585.7106L401.6467,572.1999L416.84628,572.1999Q416.92938,573.36273,417.0401,574.4425Q417.15085,575.52216,417.2062,576.02057Q417.23392,576.5189,417.23392,576.5743Q417.40002,577.54333,418.4244,577.54333L421.1376,577.54333L421.1376,567.7425 Z M425.23514,567.6318L425.23514,570.1235Q425.23514,570.95404,426.0657,571.1478Q426.56406,571.2586,429.36035,571.81226L429.36035,604.1217L426.0657,604.8139Q425.23514,605.0076,425.23514,605.8382L425.23514,608.2746L438.88437,608.2746L438.88437,605.8382Q438.88437,605.47833,438.60754,605.17377Q438.35837,604.897,437.97073,604.8139Q437.52774,604.7031,434.81454,604.1217L434.81454,591.3308L438.44138,591.3308Q439.63187,591.3308,440.13028,591.6631Q440.71167,592.0507,441.15466,592.632L451.70297,607.13947Q452.36743,608.32996,453.86252,608.32996L459.75958,608.32996L459.75958,605.8382Q459.75958,605.0076,458.90137,604.8139L458.95673,604.8139Q458.67984,604.7308,455.77283,604.26013L446.9964,592.21674Q446.24887,591.1371,445.16913,590.5279Q447.21786,590.08496,449.37735,588.89453Q451.20462,587.8977,452.5059,586.31964Q453.80716,584.7415,454.47162,582.9143Q455.16373,580.9763,455.16373,578.9552Q455.16373,576.3527,454.30545,574.24866Q453.47488,572.22754,451.59225,570.6771Q449.73724,569.1544,446.94104,568.40686Q444.00623,567.6318,440.24103,567.6318 Z M463.165,567.6318L463.165,570.1235Q463.165,570.95404,463.99557,571.1478Q464.49393,571.2586,467.29022,571.81226L467.29022,604.1217L463.99557,604.8139Q463.165,605.0076,463.165,605.8382L463.165,608.2746L476.81418,608.2746L476.81418,605.8382Q476.81418,605.47833,476.53735,605.17377Q476.28818,604.897,475.90054,604.8139Q475.4576,604.7031,472.74435,604.1217L472.74435,591.3308L476.37125,591.3308Q477.56174,591.3308,478.0601,591.6631Q478.64154,592.0507,479.08444,592.632L489.63284,607.13947Q490.2973,608.32996,491.7924,608.32996L497.6895,608.32996L497.6895,605.8382Q497.6895,605.0076,496.83124,604.8139L496.88666,604.8139Q496.60977,604.7308,493.7027,604.26013L484.9262,592.21674Q484.17868,591.1371,483.09894,590.5279Q485.14767,590.08496,487.30716,588.89453Q489.1345,587.8977,490.43576,586.31964Q491.73697,584.7415,492.4015,582.9143Q493.0936,580.9763,493.0936,578.9552Q493.0936,576.3527,492.23538,574.24866Q491.40485,572.22754,489.52213,570.6771Q487.66705,569.1544,484.87085,568.40686Q481.9361,567.6318,478.1708,567.6318 Z M543.8421,567.6318L543.8421,570.1235Q543.8421,570.95404,544.67267,571.1478Q545.171,571.2586,547.9673,571.81226L547.9673,604.1217L544.67267,604.8139Q543.8421,605.0076,543.8421,605.8382L543.8421,608.2746L557.4913,608.2746L557.4913,605.8382Q557.4913,605.47833,557.2145,605.17377Q556.9653,604.897,556.5777,604.8139Q556.1347,604.7031,553.42145,604.1217L553.42145,591.3308L557.04834,591.3308Q558.23883,591.3308,558.7372,591.6631Q559.3186,592.0507,559.7616,592.632L570.31,607.13947Q570.9744,608.32996,572.4694,608.32996L578.3665,608.32996L578.3665,605.8382Q578.3665,605.0076,577.5083,604.8139L577.56366,604.8139Q577.2868,604.7308,574.37976,604.26013L565.60333,592.21674Q564.85583,591.1371,563.776,590.5279Q565.82477,590.08496,567.9844,588.89453Q569.8116,587.8977,571.1128,586.31964Q572.4141,584.7415,573.0785,582.9143Q573.7707,580.9763,573.7707,578.9552Q573.7707,576.3527,572.9124,574.24866Q572.08185,572.22754,570.1992,570.6771Q568.3443,569.1544,565.548,568.40686Q562.6133,567.6318,558.84796,567.6318 Z M520.53046,567.27185Q516.12836,567.27185,512.36316,568.82214Q508.68085,570.3449,506.023,573.1135Q503.36517,575.8821,501.92548,579.70276Q500.45807,583.551,500.45807,588.0916Q500.45807,592.632,501.92548,596.4804Q503.36517,600.301,506.023,603.0697Q508.57013,605.7552,512.36316,607.3056Q516.2114,608.8837,520.53046,608.8837Q524.8495,608.8837,528.6979,607.3056Q532.3801,605.78284,534.98254,603.0697Q537.64044,600.301,539.0801,596.4804Q540.49207,592.7705,540.49207,588.147L540.54755,588.03625Q540.54755,583.3573,539.1355,579.64746Q537.6958,575.8267,535.03796,573.05817Q532.49084,570.3726,528.6979,568.82214Q524.93256,567.27185,520.53046,567.27185 Z"/>
</g>
</g>
<g style="fill:rgb(255,0,0); fill-opacity:0.99607843; stroke-linejoin: miter">
<path d="M244.14543,494.99872L244.0668,496.1673Q243.50787,499.6989,240.79593,501.81635Q238.06522,503.93207,234.36472,503.53217Q230.8331,502.9732,228.71568,500.2613Q228.03723,499.3847,227.59802,498.35095L227.22887,497.28815Q226.92465,496.19122,226.92123,494.99872Q227.0136,491.33917,229.44365,488.90906Q231.87373,486.479,235.53333,486.38666Q239.19295,486.479,241.623,488.90906Q244.05307,491.33917,244.14543,494.99872"/>
</g>
<g style="fill:rgb(145,145,145); fill-opacity:0.99607843; stroke-linejoin: miter">
<path d="M251.05695,493.2909L271.92465,493.29108L292.79236,493.2912Q292.79236,496.16254,292.79236,499.03387Q271.92465,499.034,251.05695,499.03424Q251.05695,496.16254,251.05695,493.2909"/>
</g>
</g>
</svg>