<?xml version="1.0" encoding="UTF-8"?>
<!DOCTYPE svg  PUBLIC '-//W3C//DTD SVG 1.0//EN'  'http://www.w3.org/TR/2001/REC-SVG-20010904/DTD/svg10.dtd'>
<svg width="277.54mm" height="171.2mm" clip-rule="evenodd" fill-rule="evenodd" image-rendering="optimizeQuality" shape-rendering="geometricPrecision" text-rendering="geometricPrecision" version="1.0" viewBox="0 0 30858 19035" xml:space="preserve" xmlns="http://www.w3.org/2000/svg">
 <defs>
  <style type="text/css">
   <![CDATA[
    .fil1 {fill:none}
    .fil0 {fill:#00A0E3}
    .fil2 {fill:#EF7F1A}
   ]]>
  </style>
 </defs>
     <path class="fil0" d="m14602 7205c-87-2-168 2-245 11l-43 31c-19 18-49 16-67-3-2-3-5-6-6-10-1492 300-845 2818 307 3323 948 415 2309-552 2404-1503 112-1132-1163-2678-2357-2011l-95 69c36-1 73-1 111 0 26 2 45 25 42 51-2 26-25 45-51 42zm-280-79l227-165c1264-705 2617 894 2496 2102-101 1014-1526 2022-2535 1580-1257-550-1907-3291-188-3517z"/>
    <path class="fil1" d="m14606 7159c-2589-251-867 5650 1999 2750 1288-1304-810-4072-2323-2696"/>
     <path class="fil0" d="m14055 8285c-871-161 733 1549 1007 278 92-428 18-621-472-668-185-18-501 3-531 238-1 26-23 46-49 45s-46-23-45-49c69-541 1248-377 1229 112-84 2155-2373-279-1117-48 25 6 41 32 35 57s-31 41-57 35z"/>
    <path class="fil1" d="m14066 8239c-1090-261 993 2043 1081 0 19-447-1114-560-1135-108"/>
     <path class="fil0" d="m14970 8248c310-84 318-91 624 0 25 9 38 36 29 60-8 25-35 38-60 29-282-84-278-77-565 1-24 8-51-6-58-31-8-25 6-51 30-59z"/>
    <path class="fil1" d="m14984 8293c266-83 359-82 595 0"/>
     <path class="fil0" d="m15944 7906c-749-141-82 2054 387 749 161-448 62-811-331-812 4 9 5 20 2 30-7 25-33 40-58 33zm-349 39l-157 66c-23 12-51 3-63-20-12-24-3-52 20-64l308-130c689-207 937 275 716 890-452 1258-1146-258-824-742z"/>
    <path class="fil1" d="m15957 7861c-855-234-119 2256 418 810 244-659-91-1154-958-702"/>
     <path class="fil0" d="m13709 8435c-176-185-347-358-499-564-6-25 10-50 35-56 26-6 51 10 57 35 154 178 311 347 473 517 19 18 19 48 1 67-18 18-48 19-67 1z"/>
    <path class="fil1" d="m13742 8401c-24-23-478-505-486-540"/>
     <path class="fil0" d="m16345 8547c146-262 358-453 430-694 4-26 28-43 54-39 26 5 43 29 38 55-86 293-271 421-434 710-9 25-36 37-60 28-25-9-37-36-28-60z"/>
    <path class="fil1" d="m16389 8563c87-239 389-453 432-702"/>
     <path class="fil0" d="m14308 8385c-27-288 156-230 232-83h8c254-12 61 254-87 334-15 11-30 21-47 31-114 65-234-154-106-282zm262 12v1-1zm-179-65c18-7 39-13 61-18-13-18-31-31-52-36-8 11-10 31-9 54zm85 84c-24 27-40 71-44 106 26-35 40-72 44-106z"/>
    <path class="fil1" d="m14390 8563c-208-669 387-160 0 63-409-169 545-497 113-58-169 171-145-189-5-221"/>
     <path class="fil0" d="m15806 8490c260-506 476 168-15 174-26-2-45-25-43-51s25-45 51-43c148-1 235-115 184-175-38 18-77 105-91 133-11 24-39 35-63 24-23-11-34-39-23-62z"/>
    <path class="fil1" d="m15849 8509c195-432 320 140-54 108"/>
     <path class="fil0" d="m14468 9819c713 379 842 339 1343-312 15-21 45-25 66-10 21 16 25 45 10 66-535 694-709 740-1467 337-22-13-29-42-16-65 13-22 42-29 64-16z"/>
    <path class="fil1" d="m14444 9859c755 447 973 257 1405-324"/>
     <path class="fil0" d="m14483 9670c-158 240-142 256-398 395-24 10-52-1-62-25s1-52 25-62c230-124 213-142 358-361 14-22 44-27 65-12 21 14 27 44 12 65z"/>
    <path class="fil1" d="m14444 9643c-131 191-159 285-378 378"/>
     <path class="fil0" d="m15380 9330c477 220 374 240 901 266 26 0 47 21 47 47s-21 47-47 47c-550-28-448-47-936-273-24-10-36-38-26-62s37-35 61-25z"/>
    <path class="fil1" d="m15363 9373c469 192 383 270 918 270"/>
     <path class="fil0" d="m15086 10724c20 1227 453 4976-1065 5393-26 5-50-12-55-37-5-26 12-50 38-55 1422-391 1007-4145 987-5301 0-26 21-47 47-47s48 21 48 47z"/>
    <path class="fil1" d="m15038 10724c0 1210 419 5076-1026 5347"/>
     <path class="fil0" d="m15110 12801c445-494 1934-1901 2659-1708 1166 310 1169 93 2338-254 26-4 50 12 55 38s-12 50-37 55c-1193 353-1187 568-2387 250-656-174-2145 1223-2555 1678-16 20-46 23-66 7s-23-46-7-66z"/>
    <path class="fil1" d="m15147 12830c405-508 2024-1896 2606-1693 1176 412 1560-101 2363-251"/>
     <path class="fil0" d="m15052 12908c-321-516-752-1307-1467-1273-1329 62-1608-43-2832-544-24-10-35-37-25-61s37-36 61-26c1207 494 1478 599 2786 537 767-36 1208 758 1558 1320 13 22 5 51-17 64-23 13-51 5-64-17z"/>
    <path class="fil1" d="m15093 12884c-330-575-858-1364-1513-1296-1123 116-1749-97-2809-540"/>
     <path class="fil0" d="m15086 14452c100 517 1006 2490 1438 2596 11 3 12 3 23 3 26-3 49 17 51 43 2 25-17 48-43 50h-27c-531-47-1446-2214-1537-2695 1-26 23-46 49-45 26 0 46 22 46 48z"/>
    <path class="fil1" d="m15038 14451c-12 433 1131 2679 1513 2647"/>
     <path class="fil0" d="m20271 9913c-52 695-96 802-232 1450-173 819 35 843 880 768 282-164 873-2469-428-2274l-4 1c-37 58-74 68-137 99-24 10-51-1-61-25s1-52 25-62c99-48 99-96 162-106 1161-183 965 1359 721 2048-147 416-172 422-560 439-774 33-832-236-690-909 134-639 179-745 230-1429 0-26 21-47 47-47s47 21 47 47z"/>
    <path class="fil1" d="m20224 9913c0 1518-1017 2476 702 2264 218-26 996-2372-324-2372-249 0-67 24-270 108"/>
     <path class="fil0" d="m20487 10346c-22 157-334 1404 72 1375 101-7 144-36 243-76 49-203 403-1341-106-1360h-256c-26 0-47-22-47-48s21-47 47-47h256c656 25 253 1259 148 1539-905 373-529-832-451-1383 0-26 21-48 47-48s47 22 47 48z"/>
    <path class="fil1" d="m20440 10346c0 386-474 1771 383 1341 14-7 490-1450-127-1450h-256"/>
     <path class="fil0" d="m20263 11975c141-57 91-44 76-117 0-26 21-47 47-47 22 0 40 15 45 35 79 120-43 180-138 219-25 8-51-5-60-30-8-25 6-51 30-60z"/>
    <path class="fil1" d="m20278 12020c201-67 108-144 108-162"/>
     <path class="fil0" d="m8884 10083c136 18 208 76 257 156 304-106 223-21 816-69 718-58 1768-468 1936 443 140 757 116 912-415 679-794-348-680-117-1446-191-819-78-828-498-937-746-27 11-57 22-91 35-24 8-51-5-60-29-8-25 5-51 29-60 27-10 52-20 75-28-38-51-89-86-171-97-26-1-45-24-43-50 1-26 24-45 50-43zm298 240c102 252 118 614 858 685 767 73 665-158 1478 199 291 127 352 208 336-161-57-1309-754-874-1889-782-625 50-507-38-783 59z"/>
    <path class="fil1" d="m8881 10129c540 38-87 1074 1728 919 991-85 1470 991 1238-428-148-907-1117-383-2327-383-489 0-198-7-531 109"/>
     <path class="fil0" d="m8890 10251c-85-277-690-1731-93-1811 304-40 1464 131 1951 136 614 7 998-68 1043 771 16 288-26 429-112 693-11 24-38 35-62 25-24-11-35-38-25-62 81-248 120-381 105-651-42-778-384-676-950-682-471-5-1652-174-1933-137-470 61 99 1474 166 1690 7 25-7 52-31 59-25 8-52-6-59-31z"/>
    <path class="fil1" d="m8935 10237c-814-2609-288-1519 2268-1620 572-23 648 901 432 1404"/>
     <path class="fil0" d="m9622 10355c385-121 193 7 389-2 26-3 49 17 51 43 2 25-17 48-43 50-270 13-23-110-367-2-24 8-51-5-60-29-8-25 5-52 30-60z"/>
    <path class="fil1" d="m9637 10400c354-122 158 18 378 0"/>
     <path class="fil0" d="m10285 10406h270c26 0 47 22 47 48s-21 47-47 47h-270c-26 0-47-21-47-47s21-48 47-48z"/>
    <path class="fil1" d="m10285 10454h270"/>
     <path class="fil0" d="m10914 10303c174-89 148-110 343-113 26 0 47 21 47 47s-21 48-47 48c-169 1-139 19-304 103-24 11-52 1-63-23-10-24 0-52 24-62z"/>
    <path class="fil1" d="m10933 10346c246-112 112-109 324-109"/>
     <path class="fil0" d="m11379 10552c-275 75-276 62-554 57-26 0-47-21-47-47s21-47 47-47c268 4 264 18 526-52 25-8 52 6 59 31 8 24-6 51-31 58z"/>
    <path class="fil1" d="m11365 10508c-255 79-282 54-540 54"/>
     <path class="fil0" d="m9731 10625c299-83 382-108 636 61 21 15 25 45 10 66-16 21-45 25-66 9-224-148-286-120-552-46-25 7-51-7-59-31-8-25 6-52 31-59z"/>
    <path class="fil1" d="m9745 10670c244-76 382-104 594 54"/>
     <path class="fil0" d="m10540 10841c152-53 130-58 285-56 26 0 47 21 47 47s-21 47-47 47c-141-2-110 1-255 51-25 9-51-5-60-29-8-25 6-52 30-60z"/>
    <path class="fil1" d="m10555 10886c195-65 119-54 270-54"/>
     <path class="fil0" d="m11350 10841c152-53 130-58 285-56 26 0 48 21 48 47s-22 47-48 47c-141-2-110 1-255 51-24 9-51-5-59-29-8-25 5-52 29-60z"/>
    <path class="fil1" d="m11365 10886c195-65 119-54 270-54"/>
     <path class="fil0" d="m8942 8908c241 1301 482 1113 1733 1069l464-3c257-192 335-700-247-803-305-54-366-6-739-89-54-12-815-199-1211-174zm-93 11c-74 15-125 42-139 87-5 25-31 41-56 35s-41-31-35-56c25-82 104-130 215-155 1-22 18-41 42-44 21-2 41 11 48 30 420-44 1124 146 1251 174 369 83 425 34 733 88 632 112 636 680 291 969-89 74-517 24-520 25-1294 44-1575 216-1830-1153z"/>
    <path class="fil1" d="m8881 8833c180 1687 937 1136 2268 1188 71 3 761-980-702-918-38 2-1699-469-1782-108"/>
     <path class="fil2" d="m19465 4397c-339-251-707-714-869 21-83 375-102 1449 566 1337 255-43 427-266 577-455l67-110c13-23 42-30 64-16 22 13 30 42 16 64l-34 57c-796 1320-1754 93-1296-1078 205-524 708-232 915 86 26 2 46 24 44 50s-24 45-50 44z"/>
    <path class="fil1" d="m19468 4350c-42-3-924-1150-972 580-20 687 589 1364 1282 397l68-113"/>
     <path class="fil2" d="m20018 5522c437-681 600-701 1043-1209 142-162 115-131 198-299 6-25 32-40 57-34s40 32 34 57c-95 195-63 161-219 339-424 487-606 531-1025 1178-8 24-35 37-60 28-24-8-37-35-28-60z"/>
    <path class="fil1" d="m20062 5538c179-503 1149-1148 1242-1512"/>
     <path class="fil2" d="m20505 5574c311-506 719-514 970-1128 6-25 32-40 57-34 25 7 40 32 34 57-273 670-671 652-974 1141-10 24-38 36-62 26s-35-38-25-62z"/>
    <path class="fil1" d="m20548 5592c138-332 843-629 972-1134"/>
     <path class="fil2" d="m20292 4467c245 108 1270 582 1382 898 6 26-10 51-35 57s-51-10-56-35c-93-253-1121-742-1319-830-25-8-39-34-31-59s34-39 59-31z"/>
    <path class="fil1" d="m20278 4512c286 89 1304 661 1350 864"/>
     <path class="fil2" d="m20075 4845c575 266 765 488 1193 708 56 29 80 41 140 46 26-2 49 17 51 43 3 26-17 49-43 51-91-7-107-13-191-56-420-215-619-443-1176-702-25-7-39-33-32-58s33-39 58-32z"/>
    <path class="fil1" d="m20062 4890c482 135 1128 775 1350 756"/>
     <path class="fil2" d="m6770 4735c432-78 561-178 821-227 320-62 236 809 239 996 5 454 119 1598-122 1910-360 466-1177 85-381-1358l224-367 43-114c10-24 37-36 61-27s37 37 27 61c-109 285 14-26-272 493-702 1270-91 1661 223 1255 210-272 108-1710 98-2161-7-306 66-665-193-575-471 164-226 111-760 208-26 2-49-18-51-44s18-48 43-50z"/>
    <path class="fil1" d="m6774 4782c1179-89 961-1147 1026 2156 21 1028-1588 861-206-1229l44-117"/>
     <path class="fil2" d="m8224 4392s24 100 56 248c190-507 537-633 648 1114 0 26-21 47-47 47s-47-21-47-47c-8-118-86-1260-292-1347l-118 169c-35 61-71 157-103 267 94 480 192 1143-34 954-178-149-161-616-61-988-41-185-80-339-93-393-7-25 8-51 33-58 26-6 51 9 58 34zm51 651c-52 272-58 565 54 667 40-101 0-387-54-667z"/>
    <path class="fil1" d="m8178 4404c659 2508-513 984 343-50 260 0 360 1184 360 1400"/>
     <path class="fil2" d="m8218 5007c671-169 555 55 821 52 26-2 48 17 51 43 2 26-17 49-43 51-316 3-161-218-801-56-24 8-51-6-58-31-8-25 6-51 30-59z"/>
    <path class="fil1" d="m8232 5052c573-179 604 72 811 54"/>
     <path class="fil2" d="m9083 4433c277 518 315 677 516 1147 4 9 8 20 13 30 88-182 480-1327 521-1439 9-24 36-37 60-27 25 9 37 36 28 60-131 360-138 373-256 715-10 28-271 1124-453 698-198-463-236-623-509-1135-14-22-7-51 15-64 22-14 51-7 65 15z"/>
    <path class="fil1" d="m9043 4458c816 1335 293 1992 1134-270"/>
     <path class="fil2" d="m10346 5534c5-40 189-2008 668-1220 246 404 267 1107 290 1548 0 26-21 47-47 47s-47-21-47-47c-23-451-22-767-156-1205-382-1250-588 648-614 885-2 26-25 45-51 43s-45-25-43-51z"/>
    <path class="fil1" d="m10393 5538c211-2386 864-1172 864 324"/>
     <path class="fil2" d="m10448 4951c387-35 734-82 1103-205 20-17 50-14 67 6 16 20 13 50-7 66-402 146-741 190-1165 227-26-1-47-22-46-48s23-47 48-46z"/>
    <path class="fil1" d="m10447 4998c162 5 1038-136 1134-216"/>
     <path class="fil2" d="m18180 13761c-38-146 35-202 125 10 69 161 408 1012 538 1090 86-119 522-1127 579-1286 7-25 32-41 58-34 25 6 40 32 33 57-140 393-84 271-275 658-526 1067-344 956-1023-462-16-3-30-16-35-33z"/>
    <path class="fil1" d="m18225 13749c-117-429 536 1447 663 1125 154-392 476-883 580-1288"/>
     <path class="fil2" d="m19999 13736s24 90 54 218c102-336 291-603 444-480 143 113 28 727 139 683 769-310 1584 943-417 816l-433-43c-26-4-44-28-41-53 4-26 27-44 53-41 2431 246 1479-792 938-618-443 143-138-485-296-669-77-90-271 250-340 612 79 368 154 818 4 663-134-138-148-415-97-685-49-199-96-370-98-378-7-25 7-51 32-58s51 8 58 33zm76 700c3 75 14 146 36 208-7-59-20-130-36-208z"/>
    <path class="fil1" d="m19954 13749c580 2075-295 540 306-127 454-505 124 706 396 577 690-326 1643 1017-864 684"/>
     <path class="fil2" d="m5728 14480c3-41 39-37 87-9 27 1 57 5 90 13 122 30 145 107 120 187 65 94 80 178-53 164-18-2-36-5-52-9-107 98-245 123-209-105-91-91-91-207 17-241zm81 309c-6-2-11-5-17-8v16c6-3 11-5 17-8zm-72-181c3-9 6-20 9-30-7 5-13 10-17 17 1 4 4 9 8 13zm187 100c2-2 4-5 6-7-17-28-38-60-62-88 18 33 40 69 56 95z"/>
    <path class="fil1" d="m5910 14775c-471-741 524 292-113-63-441-247 558-292 45 108-176 137-61-215-40-261"/>
     <path class="fil2" d="m6387 13626l1 5c61 51 137 128 229 238 439 526 670 993 523-342-5-47-30-183-34-253v-24l92 1c0 3 1 5 1 8 297 2052-369 1036-749 578 90 317 227 868 54 739-201-151-549-1236-166-982 21-2 42 11 49 32zm-81 58c-19-15-36-25-50-29-38 94 136 565 248 765-34-206-159-609-198-736z"/>
    <path class="fil1" d="m6342 13641c816 2618-1036-1507 486 580 624 855 318-984 324-959"/>
     <path class="fil2" d="m7520 13406c219 850 384 1320 887 482 12-23 41-31 64-19s31 41 19 64c-568 946-831 397-1057-490-10-24 1-52 25-62s51 1 62 25z"/>
    <path class="fil1" d="m7476 13424c41 96 303 1734 973 487"/>
     <path class="fil2" d="m7557 13764c481-339 249-160 696-535 19-18 48-18 67 0 18 18 18 48 0 67-458 384-222 202-708 545-22 15-51 10-66-11s-10-51 11-66z"/>
    <path class="fil1" d="m7584 13803c242-173 493-331 702-541"/>
     <path class="fil2" d="m7393 13226c462-370 227-189 705-543 21-14 51-9 65 13 15 21 9 50-12 65-472 350-239 170-699 538-21 16-50 13-67-7-16-21-12-50 8-66z"/>
    <path class="fil1" d="m7422 13262c234-186 455-370 702-540"/>
     <path class="fil2" d="m8426 12897c377-195 758-383 1129-591 21-15 50-11 66 10 15 21 11 50-10 66-374 211-758 400-1140 598-23 12-52 3-64-19-12-23-4-52 19-64z"/>
    <path class="fil1" d="m8449 12938c169-91 1053-533 1134-594"/>
     <path class="fil2" d="m8927 12934c85 457 183 776 217 1251-3 26-26 45-52 43-26-3-45-26-42-52-34-455-135-791-216-1233-3-26 16-49 42-52 26-2 49 17 51 43z"/>
    <path class="fil1" d="m8881 12938c22 229 241 978 216 1243"/>
     <path class="fil2" d="m23504 8427c-36 632-92 1292-154 1924-3 25-26 44-52 41s-45-26-42-52c65-655 101-1313 170-1965 14-22 44-28 65-13 22 14 28 43 13 65z"/>
    <path class="fil1" d="m23465 8401c-5 7-114 1509-162 1945"/>
     <path class="fil2" d="m24210 8636c-115 607-114 1094-104 1706 2 26-18 49-44 50-26 2-48-17-50-43-10-639-12-1118 112-1751 11-24 39-35 62-24 24 10 35 38 24 62z"/>
    <path class="fil1" d="m24167 8617c-108 244-125 1472-108 1729"/>
     <path class="fil2" d="m23303 9380c598-2 597 6 1175-160 24-7 51 7 58 31 8 25-6 52-31 59-587 168-595 163-1202 164-26 0-47-21-47-47s21-47 47-47z"/>
    <path class="fil1" d="m23303 9427c576 0 624 11 1188-162"/>
     <path class="fil2" d="m24474 8789c695-209 922-207 1638-219 26 0 47 21 47 47s-21 47-47 47c-697 12-926 9-1603 213-24 9-52-2-61-26-10-25 2-52 26-62z"/>
    <path class="fil1" d="m24491 8833c480-192 1103-216 1621-216"/>
     <path class="fil2" d="m25373 8877c-300 146-242 1009-240 1252 0 26-22 48-48 48-25 0-47-22-47-48-2-311-70-1159 300-1340 24-9 52 2 61 26 10 25-2 52-26 62z"/>
    <path class="fil1" d="m25356 8833c-320 129-271 964-271 1296"/>
     <path class="fil2" d="m26051 8941c0 116-1 240-2 367 39-366 99-666 193-489 211 394-168 1574 962 85l1-4 1 2c9-12 18-23 27-35 153-19 15 340 9 381-60 411-91 792-111 1206 0 26-21 47-47 47s-47-21-47-47c23-487 65-895 136-1358l-35 53c-911 1214-867 250-951-181-61 344-84 1225-123 1280-190 271-107-1271-107-1307 0-26 21-47 47-47s47 21 47 47z"/>
    <path class="fil1" d="m26004 8941c0 3568 90-1660 265 369 89 1025 958-390 982-400-70 325-167 1209-167 1544"/>
     <path class="fil2" d="m28588 9007c-215 725-314 990-709 1627 0 0-64 82-94 143 203-36 1381-251 1454-262 25-3 49 15 52 40 4 26-14 50-40 53-354 52-432 60-766 123-611 117-987 342-685-149 390-633 483-878 697-1599 7-25 32-40 57-33 26 6 41 32 34 57z"/>
    <path class="fil1" d="m28543 8995c-616 2346-1781 1896 702 1567"/>
     <path class="fil2" d="m30 9545c-25-116-61-149 20-189 13 5 28 26 45 60 1-4 1-8 1-13l5 26c132 283 351 1287 445 1537 15 21 11 50-10 65-21 16-50 12-66-9-171-424-297-971-422-1449-9-7-15-16-18-28z"/>
    <path class="fil1" d="m76 9535c-147-660 355 1354 432 1459"/>
     <path class="fil2" d="m877 9225c18 734 225 1310 272 2039 0 26-21 47-47 47s-47-21-47-47c-48-746-258-1294-268-2066 7-25 34-39 59-32s39 34 31 59z"/>
    <path class="fil1" d="m832 9211c-84 285 270 1509 270 2053"/>
     <path class="fil2" d="m271 10412c130-64 1035-485 1110-617 5-26 31-41 56-35 25 5 41 31 35 56-78 198-995 600-1158 679-24 12-52 3-64-20s-3-52 21-63z"/>
    <path class="fil1" d="m292 10454c154-79 1102-509 1134-649"/>
     <path class="fil2" d="m1316 9380c374-54 554-219 833-472 19-19 49-19 67 0 18 18 18 48 0 66-304 276-489 442-895 500-26 2-48-18-50-44-1-26 19-48 45-50z"/>
    <path class="fil1" d="m1318 9427c318-19 641-262 865-486"/>
     <path class="fil2" d="m1798 9321c60 534 138 1023 313 1534 16 20 14 50-6 67-20 16-50 14-66-6-198-544-273-1026-336-1598 1-26 23-47 49-46s46 23 46 49z"/>
    <path class="fil1" d="m1751 9319c-6 170 215 1439 324 1567"/>
     <path class="fil2" d="m2459 9852c10 146 25 290 53 388-1-95-23-235-53-388zm-107-527c-49-257-63-426 55-297 272 299 704 1416 797 197v-5c2-103 5-195 8-268-6-86-22-56 4-119 4-9 8-20 14-33 44-19 22-19 66 0 3 7 6 18 8 33h6l-2 59c15 320-46 1287 178 1353 26 4 44 28 40 54-5 26-29 43-54 39-163-48-230-330-255-641-185 517-586-178-796-492 6 30 13 62 21 97 2 4 3 9 4 14 82 354 234 908 133 1069-192 304-225-957-227-1060z"/>
    <path class="fil1" d="m2399 9319c-28 1437 386 1398-19-117-220-827 883 2061 883-369 0 241-62 1415 216 1458"/>
     <path class="fil2" d="m3902 8522c-64 259-485 2094 345 1635 0 0 362-210 375-254 5-26 31-41 56-35 25 5 41 31 35 56-30 104-357 280-420 315-975 538-564-1406-481-1743 7-25 33-40 58-32 25 7 40 33 32 58z"/>
    <path class="fil1" d="m3857 8509c-162 553-455 2382 594 1566 119-92 195-68 216-162"/>
     <path class="fil2" d="m4870 8856c-495 978 1600 498 917 1004-263 195-888 522-1004 6-4-26 14-50 40-53 26-4 49 14 53 40 112 499 918-104 942-152-125-161-1504 46-1029-891 12-23 41-31 64-18 22 13 30 42 17 64z"/>
    <path class="fil1" d="m4829 8833c-610 1073 1812 505 775 1085-250 140-719 338-775-59"/>
     <path class="fil2" d="m4939 8624c606-39 660-82 1159-423 21-15 50-11 66 10 15 21 11 50-10 66-523 356-583 400-1218 441-26-1-46-22-46-48 1-26 23-47 49-46z"/>
    <path class="fil1" d="m4937 8671c497 15 817-156 1189-432"/>
     <path class="fil2" d="m8205 16001c-1177-747-964 1919-182 1555 205-96 269-201 432-373l61-109c12-22 41-30 64-18 22 13 30 42 18 65-8 13-60 109-68 119-1393 1739-1796-2282-270-1315 21 15 26 45 11 66-16 21-45 26-66 10z"/>
    <path class="fil1" d="m8232 15963c-1358-978-1079 2928 261 1247l64-112"/>
     <path class="fil2" d="m9612 15733c-563-300-1663 722-138 777 1662 61-546 1529-694 865-4-26 14-50 39-54 26-4 50 14 54 39 72 323 811-186 864-227 744-581-250-509-532-537-1214-123-288-1339 457-943 22 14 29 43 15 65s-43 29-65 15z"/>
    <path class="fil1" d="m9637 15693c-650-405-1743 898-162 864 1549-33-556 1396-648 811"/>
     <path class="fil2" d="m11027 15630c-438-96-1409 278-193 444 1482 202 48 1620-480 941-15-21-8-51 13-65 22-14 51-8 65 14 410 527 1691-620 394-796-1331-182-407-767 229-628 25 8 39 34 31 59s-34 39-59 31z"/>
    <path class="fil1" d="m11041 15585c-546-170-1471 433-211 536 1402 114-7 1523-437 869"/>
     <path class="fil2" d="m24538 4242v1512c0 26-21 47-47 47s-47-21-47-47v-1512c0-26 21-47 47-47s47 21 47 47z"/>
    <path class="fil1" d="m24491 4242v1512"/>
     <path class="fil2" d="m24460 4147c514 246 807 172 1382 156 26 0 47 21 47 47s-21 47-47 47c-608 17-887 91-1428-168-22-13-30-42-18-64 13-23 42-31 64-18z"/>
    <path class="fil1" d="m24437 4188c459 258 853 162 1405 162"/>
     <path class="fil2" d="m24275 4897h1135c26 0 47 21 47 47s-21 47-47 47h-1135c-26 0-47-21-47-47s21-47 47-47z"/>
    <path class="fil1" d="m24275 4944h1135"/>
     <path class="fil2" d="m26427 4524c-311 832-970 1059-1054 1193 123 55 901 44 901 44 26 0 47 21 47 47s-21 47-47 47c-2063-27-385-158 63-1356 7-25 33-40 58-33s39 33 32 58z"/>
    <path class="fil1" d="m26382 4512c-327 1169-2149 1296-108 1296"/>
     <path class="fil2" d="m27289 4800s-39 100-94 236c261-399 572-758 703-463 132 297-418 1392-553 1683-9 24-36 37-60 29-25-9-38-36-29-60 122-266 664-1369 556-1614-131-296-649 713-899 1086-23 49-42 84-52 97 0-13 1-14-3-19-27 34-48 54-62 56l-29-41c0-2 3-13 9-30l1-1c63-171 426-995 426-996 10-24 38-35 62-24 24 10 35 37 24 61z"/>
    <path class="fil1" d="m27246 4782c-993 2328-27-96 446-239 559-170-362 1611-392 1697"/>
     <path class="fil2" d="m27072 5331c258-67 317-92 528 63 20 16 23 46 7 66-17 20-46 23-66 7-181-133-219-104-445-46-25 7-51-8-57-33-7-25 8-51 33-57z"/>
    <path class="fil1" d="m27084 5376c215-58 308-91 486 54"/>
     <path class="fil2" d="m28944 5357c-120-77-641-332-737-198-21 153 1549 631 532 1098-232 107-778 222-784-183 3-26 25-45 51-43 26 3 45 25 43 51 4 302 501 159 651 90 888-408-608-717-587-1019 19-280 726 25 893 134 19 17 21 46 4 66s-47 22-66 4z"/>
    <path class="fil1" d="m28975 5322c-398-348-1455-339-270 230 1026 493-752 1098-703 526"/>
     <path class="fil2" d="m30242 5578c-362 403-610 775-843 1265-5 26-29 43-55 38-25-5-42-30-37-55 245-529 490-898 885-1328 22-14 51-7 65 15s7 51-15 65z"/>
    <path class="fil1" d="m30217 5538c-157 100-825 1090-864 1296"/>
     <path class="fil2" d="m30804 5591c-62 559-295 711-541 1197l-162 382c-7 25-33 41-58 34-25-6-40-32-34-57l172-404c226-448 472-640 529-1149-1-26 20-48 46-49s47 20 48 46z"/>
    <path class="fil1" d="m30757 5592c16 469-572 1059-702 1567"/>
     <path class="fil2" d="m29560 6356c513-46 682 173 1251 269 26 0 47 21 47 47s-21 47-47 47l-342-57c-413-112-424-255-891-214-25 6-50-11-55-36-5-26 11-51 37-56z"/>
    <path class="fil1" d="m29569 6402c455-92 772 270 1242 270"/>
     <path class="fil2" d="m14723 609c394-1487-2259 640-587 1202 519 175 794-130 1202-418 22-14 51-7 64 15 14 22 8 51-14 65-439 309-725 615-1284 427-1921-646 1174-3023 709-1263-7 24-34 38-59 31-24-8-38-35-31-59z"/>
    <path class="fil1" d="m14768 623c496-1590-2479 573-648 1233 565 203 821-158 1243-423"/>
     <path class="fil2" d="m16057 180c74 400 149 802 217 1203-3 26-26 45-52 43-26-3-44-26-42-52-73-390-143-782-215-1173-6-25 10-50 35-56s51 9 57 35z"/>
    <path class="fil1" d="m16011 190c3 12 217 1182 216 1189"/>
     <path class="fil2" d="m15741 940c-122-3-129-87-2-122 387-108 772-181 1175-294 24-8 51 5 60 29 8 25-5 52-30 60-161 45-918 215-1157 287-3 23-23 40-46 40z"/>
    <path class="fil1" d="m15741 893c-270 0 755-175 1188-324"/>
     <path class="fil2" d="m17192 190c21 364 82 621 108 973 0 26-21 47-47 47s-47-21-47-47c-26-351-86-606-108-973 0-26 21-47 47-47s47 21 47 47z"/>
    <path class="fil1" d="m17145 190c0 433 108 643 108 973"/>
     <path class="fil2" d="m16936 890c55-422 374-233 775-467 21-16 51-11 66 9 16 21 11 51-10 66-409 239-694 71-737 398-2 26-24 45-50 44-26-2-46-24-44-50z"/>
    <path class="fil1" d="m16983 893c25-394 409-175 756-432"/>
     <path class="fil2" d="m23295 13579c122 605 188 775 217 1412 0 26-21 47-47 47s-47-21-47-47c-28-627-95-799-215-1397-5-25 12-50 38-54s50 13 54 39z"/>
    <path class="fil1" d="m23249 13586c107 634 216 737 216 1405"/>
     <path class="fil2" d="m22939 13665c-751-1324 2608 764 510 680-152-6-214-69-246-210-5-26 12-50 38-55 26-4 50 13 54 39l8 35c59 192 533 86 639 51 571-192-1434-1490-923-589 14 22 7 51-15 64-22 14-51 7-65-15z"/>
    <path class="fil1" d="m22979 13641c-714-1146 2417 746 472 657-124-6-182-55-202-171"/>
     <path class="fil2" d="m24483 13272c8 514 118 976 163 1503 0 26-21 47-47 47s-47-21-47-47c-47-542-156-985-161-1522 5-25 30-42 56-37 25 5 42 30 36 56z"/>
    <path class="fil1" d="m24437 13262c-52 261 162 1096 162 1513"/>
     <path class="fil2" d="m24996 13327c432 233 359 799 353 1232 0 26-21 47-47 47s-47-21-47-47c4-357 85-940-296-1145-24-11-35-38-25-62s38-35 62-25z"/>
    <path class="fil1" d="m24977 13370c393 168 325 812 325 1189"/>
     <path class="fil2" d="m24557 14148c-273-610 669-130 1088-485 18-19 47-21 67-3 19 18 20 47 2 66-506 430-1281-84-1072 380 11 23 2 51-22 63-23 11-51 2-63-21z"/>
    <path class="fil1" d="m24599 14127c-265-537 727-48 1081-432"/>
     <path class="fil2" d="m26261 13124c-186 391 51 967 114 1435 0 26-21 47-47 47s-47-21-47-47c-70-513-311-1041-102-1482 13-23 42-30 64-18 23 13 31 42 18 65z"/>
    <path class="fil1" d="m26220 13100c-235 413 108 987 108 1459"/>
     <path class="fil2" d="m25579 13162c-98-972 3362 442 740 617l-585 17c-26 0-47-21-47-47s21-48 47-48l579-16c2348-157-708-1200-641-538 4 25-13 50-39 54-25 4-49-13-54-39z"/>
    <path class="fil1" d="m25626 13154c-147-877 3658 595 108 595"/>
     <path class="fil2" d="m19237 16999l162-54c25-8 51 5 59 30 9 24-5 51-29 59 0 0-162 54-162 54-25 8-52-5-60-30-8-24 5-51 30-59z"/>
    <path class="fil1" d="m19252 17044l162-55"/>
     <path class="fil2" d="m19895 16928s-1271-54-994 195c316 284 1291 0 1071 636-233 674-1286 625-1835 474l-361-119c-24-10-36-37-27-61 10-24 37-36 61-27 574 190 1684 461 2053-249 298-575-781-252-1055-617-320-425 1096-325 1096-325 26 2 45 25 43 51-3 26-26 45-52 42z"/>
    <path class="fil1" d="m19900 16881c-1459-141-1344 444-230 482 693 23 111 1469-1877 707"/>
     <path class="fil2" d="m20661 16928c-1467 234 148 2349 536 1189 156-466 249-1416-489-1469-135-10-215 38-280 147-12 23-41 32-64 20s-32-40-20-63c293-490 1065 0 1061 576-16 2909-2659-190-753-493 26-3 49 16 51 42 3 26-16 49-42 51z"/>
    <path class="fil1" d="m20656 16881c-1759 171 650 3295 702 446 11-565-751-976-972-554"/>
     <path class="fil2" d="m20810 17841c123 389 260 741 378 1135 6 26-9 51-34 58-25 6-51-9-57-34-118-394-255-745-378-1134-7-25 8-51 33-58 25-6 51 8 58 33z"/>
    <path class="fil1" d="m20764 17854c96 351 269 708 378 1134"/>
     <path class="fil2" d="m21884 16856c457 849-836 2303 700 1818 25-9 52 3 61 28 9 24-3 51-28 60-1677 529-410-1107-812-1855-14-22-8-51 14-65s51-8 65 14z"/>
    <path class="fil1" d="m21845 16881c413 641-823 2425 756 1837"/>
</svg>
